<?xml version="1.0" encoding="UTF-8"?>
<!DOCTYPE svg PUBLIC "-//W3C//DTD SVG 1.1//EN" "http://www.w3.org/Graphics/SVG/1.1/DTD/svg11.dtd">
<svg version="1.1" xmlns="http://www.w3.org/2000/svg" xmlns:xlink="http://www.w3.org/1999/xlink" x="0" y="0" width="360" height="306" viewBox="0, 0, 360, 306">
  <defs>
    <radialGradient id="Gradient_1" gradientUnits="userSpaceOnUse" cx="196.132" cy="83.185" r="9.949">
      <stop offset="0" stop-color="#EEA292"/>
      <stop offset="1" stop-color="#F3B9A0"/>
    </radialGradient>
    <radialGradient id="Gradient_2" gradientUnits="userSpaceOnUse" cx="138.441" cy="83.185" r="9.949">
      <stop offset="0" stop-color="#EEA292"/>
      <stop offset="1" stop-color="#F3B9A0"/>
    </radialGradient>
    <radialGradient id="Gradient_3" gradientUnits="userSpaceOnUse" cx="303.12" cy="97.761" r="9.949">
      <stop offset="0" stop-color="#EEA292"/>
      <stop offset="1" stop-color="#F3B9A0"/>
    </radialGradient>
    <radialGradient id="Gradient_4" gradientUnits="userSpaceOnUse" cx="259.297" cy="97.761" r="9.949">
      <stop offset="0" stop-color="#EEA292"/>
      <stop offset="1" stop-color="#F3B9A0"/>
    </radialGradient>
    <radialGradient id="Gradient_5" gradientUnits="userSpaceOnUse" cx="48.635" cy="95.377" r="9.949">
      <stop offset="0" stop-color="#EEA292"/>
      <stop offset="1" stop-color="#F3B9A0"/>
    </radialGradient>
    <clipPath id="Clip_1">
      <path d="M48.635,85.428 C54.129,85.428 58.585,89.882 58.585,95.377 C58.585,100.872 54.129,105.326 48.635,105.326 C43.14,105.326 38.686,100.872 38.686,95.377 C38.686,89.882 43.14,85.428 48.635,85.428 z"/>
    </clipPath>
    <radialGradient id="Gradient_6" gradientUnits="userSpaceOnUse" cx="95.62" cy="95.377" r="9.949">
      <stop offset="0" stop-color="#EEA292"/>
      <stop offset="1" stop-color="#F3B9A0"/>
    </radialGradient>
    <clipPath id="Clip_2">
      <path d="M95.62,85.428 C96.663,85.481 96.304,85.412 96.713,85.495 C96.488,89.289 96.622,87.502 96.329,90.856 C98.512,95.071 99.587,100.384 98.061,104.984 C96.304,105.342 97.121,105.25 95.62,105.326 C90.125,105.326 85.671,100.872 85.671,95.377 C85.671,89.882 90.125,85.428 95.62,85.428 z"/>
    </clipPath>
    <radialGradient id="Gradient_7" gradientUnits="userSpaceOnUse" cx="263.379" cy="190.405" r="10.446">
      <stop offset="0" stop-color="#EEA292"/>
      <stop offset="1" stop-color="#F3B9A0"/>
    </radialGradient>
    <clipPath id="Clip_3">
      <path d="M263.265,179.958 C269.033,179.896 273.762,184.522 273.824,190.291 C273.887,196.062 269.259,200.788 263.491,200.851 C257.722,200.913 252.994,196.287 252.932,190.518 C252.869,184.748 257.495,180.02 263.265,179.958 z"/>
    </clipPath>
    <radialGradient id="Gradient_8" gradientUnits="userSpaceOnUse" cx="215.58" cy="188.424" r="10.446">
      <stop offset="0" stop-color="#EEA292"/>
      <stop offset="1" stop-color="#F3B9A0"/>
    </radialGradient>
    <clipPath id="Clip_4">
      <path d="M215.467,177.978 C221.236,177.915 225.964,182.541 226.026,188.311 C226.089,194.08 221.463,198.808 215.693,198.87 C213.577,198.91 211.594,198.253 209.844,197.099 C208.506,191.783 208.432,186.277 208.455,180.836 C210.285,178.904 212.889,178.136 215.467,177.978 z"/>
    </clipPath>
    <radialGradient id="Gradient_9" gradientUnits="userSpaceOnUse" cx="90.909" cy="200.344" r="10.446">
      <stop offset="0" stop-color="#EEA292"/>
      <stop offset="1" stop-color="#F3B9A0"/>
    </radialGradient>
    <clipPath id="Clip_5">
      <path d="M90.909,189.896 C96.678,189.896 101.356,194.573 101.356,200.343 C101.356,206.113 96.678,210.79 90.909,210.79 C85.139,210.79 80.462,206.113 80.462,200.343 C80.462,194.573 85.139,189.896 90.909,189.896 z"/>
    </clipPath>
    <radialGradient id="Gradient_10" gradientUnits="userSpaceOnUse" cx="135.62" cy="193.658" r="10.446">
      <stop offset="0" stop-color="#EEA292"/>
      <stop offset="1" stop-color="#F3B9A0"/>
    </radialGradient>
    <clipPath id="Clip_6">
      <path d="M135.62,183.211 C136.872,183.209 138.122,183.425 139.277,183.913 C139.58,190.638 139.345,197.765 136.663,204.052 L135.62,204.105 C129.851,204.105 125.173,199.428 125.173,193.657 C125.173,187.888 129.851,183.211 135.62,183.211 z"/>
    </clipPath>
    <clipPath id="Clip_7">
      <path d="M-0.33,0.215 L359.732,0.215 L359.732,306.831 L-0.33,306.831 L-0.33,0.215 z"/>
    </clipPath>
  </defs>
  <g id="Layer_1">
    <g clip-path="url(#Clip_7)">
      <g>
        <path d="M211.156,235.264 C211.156,235.264 208.449,293.023 208.449,319.646 L176.861,319.646 C176.861,319.646 174.738,265.045 167.677,265.045 C160.615,265.045 158.492,319.646 158.492,319.646 L126.905,319.646 C126.905,293.023 124.197,235.264 124.197,235.264" fill="#8B6B46"/>
        <path d="M211.156,235.264 C211.156,235.264 208.449,293.023 208.449,319.646 L176.861,319.646 C176.861,319.646 174.738,265.045 167.677,265.045 C160.615,265.045 158.492,319.646 158.492,319.646 L126.905,319.646 C126.905,293.023 124.197,235.264 124.197,235.264" fill-opacity="0" stroke="#414241" stroke-width="1.701" stroke-linecap="round" stroke-linejoin="round"/>
      </g>
      <g>
        <path d="M211.607,161.859 C211.607,161.859 222.136,171.186 230.861,176.301 C239.584,181.414 250.113,177.805 250.113,177.805 L289.223,163.065 C289.223,148.324 277.188,143.209 277.188,143.209 L241.991,153.738 C241.991,153.738 220.031,128.168 204.086,118.24 C188.143,108.313 167.677,110.719 167.677,110.719 C167.677,110.719 147.211,108.313 131.267,118.24 C115.322,128.168 93.362,153.738 93.362,153.738 L58.164,143.209 C58.164,143.209 46.131,148.324 46.131,163.065 L85.239,177.805 C85.239,177.805 95.768,181.414 104.493,176.301 C113.217,171.186 123.746,161.859 123.746,161.859" fill="#8B6B46"/>
        <path d="M211.607,161.859 C211.607,161.859 222.136,171.186 230.861,176.301 C239.584,181.414 250.113,177.805 250.113,177.805 L289.223,163.065 C289.223,148.324 277.188,143.209 277.188,143.209 L241.991,153.738 C241.991,153.738 220.031,128.168 204.086,118.24 C188.143,108.313 167.677,110.719 167.677,110.719 C167.677,110.719 147.211,108.313 131.267,118.24 C115.322,128.168 93.362,153.738 93.362,153.738 L58.164,143.209 C58.164,143.209 46.131,148.324 46.131,163.065 L85.239,177.805 C85.239,177.805 95.768,181.414 104.493,176.301 C113.217,171.186 123.746,161.859 123.746,161.859" fill-opacity="0" stroke="#414241" stroke-width="1.701" stroke-linecap="round" stroke-linejoin="round"/>
      </g>
      <g>
        <path d="M214.014,150.127 C214.014,150.127 211.307,216.193 214.315,240.561 C214.315,240.561 200.158,247.48 167.677,247.48 C135.195,247.48 121.039,240.561 121.039,240.561 C124.046,216.193 121.339,150.127 121.339,150.127" fill="#8B6B46"/>
        <path d="M214.014,150.127 C214.014,150.127 211.307,216.193 214.315,240.561 C214.315,240.561 200.158,247.48 167.677,247.48 C135.195,247.48 121.039,240.561 121.039,240.561 C124.046,216.193 121.339,150.127 121.339,150.127" fill-opacity="0" stroke="#414241" stroke-width="1.701" stroke-linecap="round" stroke-linejoin="round"/>
      </g>
      <g>
        <path d="M167.677,128.391 L179.662,135.236 L180.922,162.16 L167.677,199.167 L154.431,162.16 L155.691,135.236 L167.677,128.391" fill="#FFFFFE"/>
        <path d="M167.677,128.391 L179.662,135.236 L180.922,162.16 L167.677,199.167 L154.431,162.16 L155.691,135.236 L167.677,128.391" fill-opacity="0" stroke="#414241" stroke-width="1.701" stroke-linecap="round" stroke-linejoin="round"/>
      </g>
      <g>
        <path d="M171.374,139.197 L173.82,187.65 L167.677,197.766 L161.533,187.65 L163.981,139.197 L171.374,139.197 z" fill="#F6BC25"/>
        <path d="M171.374,139.197 L173.82,187.65 L167.677,197.766 L161.533,187.65 L163.981,139.197 L171.374,139.197 z" fill-opacity="0" stroke="#414241" stroke-width="1.701" stroke-linecap="round" stroke-linejoin="round"/>
      </g>
      <g>
        <path d="M167.677,107.941 C167.677,107.941 181.379,106.924 181.379,118.646 L180.359,135.635 L167.677,128.391 L154.994,135.635 L153.975,118.646 C153.975,106.924 167.677,107.941 167.677,107.941 z" fill="#FFFFFE"/>
        <path d="M167.677,107.941 C167.677,107.941 181.379,106.924 181.379,118.646 L180.359,135.635 L167.677,128.391 L154.994,135.635 L153.975,118.646 C153.975,106.924 167.677,107.941 167.677,107.941 z" fill-opacity="0" stroke="#414241" stroke-width="1.701" stroke-linecap="round" stroke-linejoin="round"/>
      </g>
      <g>
        <path d="M174.023,132.016 C174.023,132.016 173.657,138.121 171.374,140.405 C171.374,140.405 169.365,141.384 167.677,141.384 C165.988,141.384 163.981,140.405 163.981,140.405 C161.696,138.121 161.33,132.016 161.33,132.016 C161.33,132.016 164.684,128.391 167.677,128.391 C170.67,128.391 174.023,132.016 174.023,132.016 z" fill="#F6BC25"/>
        <path d="M174.023,132.016 C174.023,132.016 173.657,138.121 171.374,140.405 C171.374,140.405 169.365,141.384 167.677,141.384 C165.988,141.384 163.981,140.405 163.981,140.405 C161.696,138.121 161.33,132.016 161.33,132.016 C161.33,132.016 164.684,128.391 167.677,128.391 C170.67,128.391 174.023,132.016 174.023,132.016 z" fill-opacity="0" stroke="#414241" stroke-width="1.701" stroke-linecap="round" stroke-linejoin="round"/>
      </g>
      <g>
        <path d="M158.966,106.641 C158.966,106.641 150.236,106.243 144.63,124.931 L137.494,144.299 L150.916,147.186 L142.251,157.721 L167.677,199.167 C167.677,199.167 152.983,132.867 154.243,115.988 C154.243,115.988 155.726,107.941 167.677,107.941 L158.966,106.641 z" fill="#8B6B46"/>
        <path d="M158.966,106.641 C158.966,106.641 150.236,106.243 144.63,124.931 L137.494,144.299 L150.916,147.186 L142.251,157.721 L167.677,199.167 C167.677,199.167 152.983,132.867 154.243,115.988 C154.243,115.988 155.726,107.941 167.677,107.941 L158.966,106.641 z" fill-opacity="0" stroke="#414241" stroke-width="1.701" stroke-linecap="round" stroke-linejoin="round"/>
      </g>
      <g>
        <path d="M176.387,106.641 C176.387,106.641 185.117,106.243 190.723,124.931 L197.859,144.299 L184.437,147.186 L193.102,157.721 L167.677,199.167 C167.677,199.167 182.371,132.867 181.111,115.988 C181.111,115.988 179.627,107.941 167.677,107.941 L176.387,106.641 z" fill="#8B6B46"/>
        <path d="M176.387,106.641 C176.387,106.641 185.117,106.243 190.723,124.931 L197.859,144.299 L184.437,147.186 L193.102,157.721 L167.677,199.167 C167.677,199.167 182.371,132.867 181.111,115.988 C181.111,115.988 179.627,107.941 167.677,107.941 L176.387,106.641 z" fill-opacity="0" stroke="#414241" stroke-width="1.701" stroke-linecap="round" stroke-linejoin="round"/>
      </g>
      <path d="M167.677,199.167 L167.677,247.48 M176.542,212.475 C176.542,214.594 175.431,216.31 174.06,216.31 C172.69,216.31 171.578,214.594 171.578,212.475 C171.578,210.356 172.69,208.639 174.06,208.639 C175.431,208.639 176.542,210.356 176.542,212.475 z M176.542,234.135 C176.542,236.254 175.431,237.971 174.06,237.971 C172.69,237.971 171.578,236.254 171.578,234.135 C171.578,232.016 172.69,230.3 174.06,230.3 C175.431,230.3 176.542,232.016 176.542,234.135 z" fill-opacity="0" stroke="#414241" stroke-width="1.701" stroke-linecap="round" stroke-linejoin="round"/>
      <g>
        <path d="M167.677,128.391 L177.98,114.398 C175.434,111.851 176.623,104.205 176.623,104.205 L167.677,101.656 L158.73,104.205 C158.73,104.205 159.92,111.851 157.372,114.398 L167.677,128.391 z" fill="#F3B9A0"/>
        <path d="M167.677,128.391 L177.98,114.398 C175.434,111.851 176.623,104.205 176.623,104.205 L167.677,101.656 L158.73,104.205 C158.73,104.205 159.92,111.851 157.372,114.398 L167.677,128.391 z" fill-opacity="0" stroke="#414241" stroke-width="1.701" stroke-linecap="round" stroke-linejoin="round"/>
      </g>
      <g>
        <path d="M129.197,68.137 C127.283,62.875 120.931,64.855 119.79,69.4 C118.993,72.574 119.356,77.045 121.581,79.565 C123.478,81.713 127.045,82.825 129.793,83.236 C129.793,83.236 131.581,74.694 129.197,68.137 z" fill="#F3B9A0"/>
        <path d="M129.197,68.137 C127.283,62.875 120.931,64.855 119.79,69.4 C118.993,72.574 119.356,77.045 121.581,79.565 C123.478,81.713 127.045,82.825 129.793,83.236 C129.793,83.236 131.581,74.694 129.197,68.137 z" fill-opacity="0" stroke="#414241" stroke-width="1.701" stroke-linecap="round" stroke-linejoin="round"/>
      </g>
      <g>
        <path d="M206.156,68.137 C208.07,62.875 214.422,64.855 215.564,69.4 C216.359,72.574 215.996,77.045 213.771,79.565 C211.876,81.713 208.309,82.825 205.56,83.236 C205.561,83.236 203.773,74.694 206.156,68.137 z" fill="#F3B9A0"/>
        <path d="M206.156,68.137 C208.07,62.875 214.422,64.855 215.564,69.4 C216.359,72.574 215.996,77.045 213.771,79.565 C211.876,81.713 208.309,82.825 205.56,83.236 C205.561,83.236 203.773,74.694 206.156,68.137 z" fill-opacity="0" stroke="#414241" stroke-width="1.701" stroke-linecap="round" stroke-linejoin="round"/>
      </g>
      <g>
        <path d="M167.677,9.717 C167.677,9.717 227.418,12.301 206.355,75.09 C206.355,75.09 220.004,106.484 167.677,111.85 C115.35,106.484 128.998,75.09 128.998,75.09 C107.935,12.301 167.677,9.717 167.677,9.717 z" fill="#F3B9A0"/>
        <path d="M167.677,9.717 C167.677,9.717 227.418,12.301 206.355,75.09 C206.355,75.09 220.004,106.484 167.677,111.85 C115.35,106.484 128.998,75.09 128.998,75.09 C107.935,12.301 167.677,9.717 167.677,9.717 z" fill-opacity="0" stroke="#414241" stroke-width="1.701" stroke-linecap="round" stroke-linejoin="round"/>
      </g>
      <path d="M185.629,33.959 C185.629,33.959 173.082,24.315 152.059,29.484 C152.059,29.484 159.296,20.242 171.17,22.473 C171.17,22.473 183.47,22.665 185.629,33.959" fill="#616261"/>
      <g>
        <path d="M160.944,68.6 C160.944,70.804 159.158,72.59 156.955,72.59 L141.776,72.59 C139.572,72.59 137.786,70.804 137.786,68.6 L137.786,59.889 C137.786,57.685 139.572,55.899 141.776,55.899 L156.955,55.899 C159.158,55.899 160.944,57.685 160.944,59.889 L160.944,68.6 z" fill="#FFFFFE"/>
        <path d="M160.944,68.6 C160.944,70.804 159.158,72.59 156.955,72.59 L141.776,72.59 C139.572,72.59 137.786,70.804 137.786,68.6 L137.786,59.889 C137.786,57.685 139.572,55.899 141.776,55.899 L156.955,55.899 C159.158,55.899 160.944,57.685 160.944,59.889 L160.944,68.6 z" fill-opacity="0" stroke="#414241" stroke-width="1.701" stroke-linecap="round" stroke-linejoin="round"/>
      </g>
      <g>
        <path d="M174.409,68.6 C174.409,70.804 176.195,72.59 178.398,72.59 L193.578,72.59 C195.781,72.59 197.567,70.804 197.567,68.6 L197.567,59.889 C197.567,57.685 195.781,55.899 193.578,55.899 L178.398,55.899 C176.195,55.899 174.409,57.685 174.409,59.889 L174.409,68.6 z" fill="#FFFFFE"/>
        <path d="M174.409,68.6 C174.409,70.804 176.195,72.59 178.398,72.59 L193.578,72.59 C195.781,72.59 197.567,70.804 197.567,68.6 L197.567,59.889 C197.567,57.685 195.781,55.899 193.578,55.899 L178.398,55.899 C176.195,55.899 174.409,57.685 174.409,59.889 L174.409,68.6 z" fill-opacity="0" stroke="#414241" stroke-width="1.701" stroke-linecap="round" stroke-linejoin="round"/>
      </g>
      <path d="M185.629,33.959 C185.629,33.959 193.045,32.065 198.551,35.815 C198.551,35.815 192.386,27.201 185.629,33.959" fill="#616261"/>
      <path d="M174.409,64.36 C174.409,64.36 172.713,62.572 167.677,62.572 C162.641,62.572 160.944,64.36 160.944,64.36 M137.786,63.764 L127.21,62.97 M197.567,63.764 L208.144,62.97 M144.695,66.348 C144.695,63.494 146.831,61.182 149.464,61.182 C152.098,61.182 154.233,63.494 154.233,66.348 M190.658,66.348 C190.658,63.494 188.523,61.182 185.889,61.182 C183.256,61.182 181.121,63.494 181.121,66.348" fill-opacity="0" stroke="#414241" stroke-width="1.701" stroke-linecap="round" stroke-linejoin="round"/>
      <g>
        <path d="M175.123,51.916 C175.465,51.074 176.148,50.18 176.918,49.573 C179.637,47.428 184.684,46.107 188.019,46.56 C190.346,46.875 198.239,48.283 196.818,51.83 C195.94,54.02 191.232,52.391 189.687,52.101 C188.237,51.828 186.756,51.471 185.284,51.791 C183.754,52.123 179.133,53.791 177.582,54.101 C176.049,54.406 174.298,53.947 175.123,51.916 z" fill="#777776"/>
        <path d="M175.123,51.916 C175.465,51.074 176.148,50.18 176.918,49.573 C179.637,47.428 184.684,46.107 188.019,46.56 C190.346,46.875 198.239,48.283 196.818,51.83 C195.94,54.02 191.232,52.391 189.687,52.101 C188.237,51.828 186.756,51.471 185.284,51.791 C183.754,52.123 179.133,53.791 177.582,54.101 C176.049,54.406 174.298,53.947 175.123,51.916 z" fill-opacity="0" stroke="#414241" stroke-width="1.701" stroke-linecap="round" stroke-linejoin="round"/>
      </g>
      <g>
        <path d="M160.23,51.916 C159.888,51.074 159.206,50.18 158.435,49.573 C155.716,47.428 150.669,46.107 147.335,46.56 C145.007,46.875 137.114,48.283 138.536,51.83 C139.413,54.02 144.121,52.391 145.666,52.101 C147.116,51.828 148.598,51.471 150.069,51.791 C151.6,52.123 156.221,53.791 157.772,54.101 C159.304,54.406 161.056,53.947 160.23,51.916 z" fill="#777776"/>
        <path d="M160.23,51.916 C159.888,51.074 159.206,50.18 158.435,49.573 C155.716,47.428 150.669,46.107 147.335,46.56 C145.007,46.875 137.114,48.283 138.536,51.83 C139.413,54.02 144.121,52.391 145.666,52.101 C147.116,51.828 148.598,51.471 150.069,51.791 C151.6,52.123 156.221,53.791 157.772,54.101 C159.304,54.406 161.056,53.947 160.23,51.916 z" fill-opacity="0" stroke="#414241" stroke-width="1.701" stroke-linecap="round" stroke-linejoin="round"/>
      </g>
      <g>
        <path d="M169.732,68.335 C169.732,68.335 155.624,65.356 155.624,76.084 C155.624,76.084 154.233,87.012 170.328,84.627" fill="#F3B9A0"/>
        <path d="M169.732,68.335 C169.732,68.335 155.624,65.356 155.624,76.084 C155.624,76.084 154.233,87.012 170.328,84.627" fill-opacity="0" stroke="#414241" stroke-width="1.701" stroke-linecap="round" stroke-linejoin="round"/>
      </g>
      <g>
        <path d="M206.355,75.09 C209.596,60.784 205.299,42.504 197.749,34.953 C190.199,27.402 185.629,33.959 185.629,33.959 C183.84,21.838 167.677,22.236 167.677,22.236 C153.301,22.236 148.273,35.549 148.273,35.549 C147.08,29.984 152.246,25.415 152.246,25.415 C146.881,26.408 139.529,36.94 139.529,36.94 C139.529,29.785 146.086,25.613 146.086,25.613 C124.496,31.9 128.998,75.09 128.998,75.09 C119.262,58.598 122.838,42.305 122.838,42.305 L121.249,45.087 C118.864,3.756 167.677,5.346 167.677,5.346 L162.381,3.16 C181.059,1.969 186.622,12.301 186.622,12.301 C186.622,12.301 201.922,9.121 211.062,27.998 L206.293,25.613 C206.293,25.613 223.184,46 206.355,75.09 z" fill="#777776"/>
        <path d="M206.355,75.09 C209.596,60.784 205.299,42.504 197.749,34.953 C190.199,27.402 185.629,33.959 185.629,33.959 C183.84,21.838 167.677,22.236 167.677,22.236 C153.301,22.236 148.273,35.549 148.273,35.549 C147.08,29.984 152.246,25.415 152.246,25.415 C146.881,26.408 139.529,36.94 139.529,36.94 C139.529,29.785 146.086,25.613 146.086,25.613 C124.496,31.9 128.998,75.09 128.998,75.09 C119.262,58.598 122.838,42.305 122.838,42.305 L121.249,45.087 C118.864,3.756 167.677,5.346 167.677,5.346 L162.381,3.16 C181.059,1.969 186.622,12.301 186.622,12.301 C186.622,12.301 201.922,9.121 211.062,27.998 L206.293,25.613 C206.293,25.613 223.184,46 206.355,75.09 z" fill-opacity="0" stroke="#414241" stroke-width="1.701" stroke-linecap="round" stroke-linejoin="round"/>
      </g>
      <path d="M176.281,23.658 C176.281,23.658 180.041,23.594 180.041,30.075 M173.152,22.805 C173.152,22.805 175.931,23.69 174.982,28.434 M167.677,22.236 C167.677,22.236 171.102,23.597 169.995,27.293 M162.619,22.833 C162.619,22.833 164.544,24.072 164.114,26.943 M157.497,24.904 C157.497,24.904 159.038,24.883 158.7,27.547" fill-opacity="0" stroke="#414241" stroke-width="1.701" stroke-linecap="round" stroke-linejoin="round"/>
      <path d="M138.489,16.648 C138.489,16.648 127.482,22.349 127.482,32.176 L136.327,25.297 L135.737,28.442 L148.12,21.17 L148.513,23.527 L162.075,15.862 L152.051,18.221 L152.248,15.076 L140.651,21.955 L141.831,19.203 L134.361,23.332 L138.489,16.648" fill="#9E9F9E"/>
      <path d="M193.916,17.828 C193.916,17.828 207.479,23.332 207.479,31.783 L199.42,26.477 L198.437,30.604 L184.68,20.383 L194.113,24.118 L193.916,21.365 L198.635,23.332 L193.916,17.828" fill="#9E9F9E"/>
      <path d="M185.094,88.602 C183.703,96.152 167.677,97.346 167.677,97.346 C167.677,97.346 151.65,96.152 150.259,88.602 M151.65,85.025 C151.65,85.025 146.298,88.568 147.08,98.141 M183.703,85.025 C183.703,85.025 189.055,88.568 188.273,98.141" fill-opacity="0" stroke="#414241" stroke-width="1.701" stroke-linecap="round" stroke-linejoin="round"/>
      <path d="M206.081,83.185 C206.081,88.68 201.626,93.134 196.132,93.134 C190.637,93.134 186.183,88.68 186.183,83.185 C186.183,77.69 190.637,73.235 196.132,73.235 C201.626,73.235 206.081,77.69 206.081,83.185 z" fill="url(#Gradient_1)"/>
      <path d="M148.39,83.185 C148.39,88.68 143.935,93.134 138.441,93.134 C132.946,93.134 128.492,88.68 128.492,83.185 C128.492,77.69 132.946,73.235 138.441,73.235 C143.935,73.235 148.39,77.69 148.39,83.185 z" fill="url(#Gradient_2)"/>
      <g>
        <path d="M304.606,110.508 C304.606,110.508 308.977,113.583 306.388,121.673 C303.8,129.763 302.505,145.299 312.05,152.257 C312.05,152.257 307.845,143.681 310.917,138.34 C310.917,138.34 309.785,146.269 313.347,149.827 C313.347,149.827 312.78,139.714 316.421,136.072 C320.062,132.431 327.585,112.612 311.889,106.625 L304.606,110.508 z" fill="#8B6B46"/>
        <path d="M304.606,110.508 C304.606,110.508 308.977,113.583 306.388,121.673 C303.8,129.763 302.505,145.299 312.05,152.257 C312.05,152.257 307.845,143.681 310.917,138.34 C310.917,138.34 309.785,146.269 313.347,149.827 C313.347,149.827 312.78,139.714 316.421,136.072 C320.062,132.431 327.585,112.612 311.889,106.625 L304.606,110.508 z" fill-opacity="0" stroke="#414241" stroke-width="1.701" stroke-linecap="round" stroke-linejoin="round"/>
      </g>
      <g>
        <path d="M336.69,144.08 C336.69,144.08 334.956,129.727 333.536,124.207 C333.536,124.207 332.432,119.948 335.429,121.053 C335.429,121.053 339.53,123.892 340.318,137.14 C340.481,134.168 340.552,131.183 340.523,128.206 C340.501,126.153 340.366,124.128 340.196,122.085 C339.904,118.587 343.478,118.69 344.552,121.544 C345.381,123.744 345.321,127.268 345.364,129.586 C345.415,132.241 345.352,134.954 345.208,137.605 C345.312,135.681 346.47,133.412 346.902,131.517 C347.259,129.962 347.852,124.428 350.294,125.171 C352.902,125.964 351.546,130.319 351.302,132.05 C350.878,135.056 350.251,137.993 349.466,140.926 C351.044,139.979 350.921,139.311 351.536,138.53 C352.219,137.665 352.694,136.665 353.181,135.685 C353.558,134.924 354.523,132.383 355.739,132.72 C356.769,133.005 357.08,134.613 357.096,135.503 C357.118,136.757 356.743,137.978 356.249,139.117 C355.103,141.75 354.527,142.583 352.463,144.554 C352.463,144.554 352.148,156.54 345.839,158.748 L336.572,157.623" fill="#F3B9A0"/>
        <path d="M336.69,144.08 C336.69,144.08 334.956,129.727 333.536,124.207 C333.536,124.207 332.432,119.948 335.429,121.053 C335.429,121.053 339.53,123.892 340.318,137.14 C340.481,134.168 340.552,131.183 340.523,128.206 C340.501,126.153 340.366,124.128 340.196,122.085 C339.904,118.587 343.478,118.69 344.552,121.544 C345.381,123.744 345.321,127.268 345.364,129.586 C345.415,132.241 345.352,134.954 345.208,137.605 C345.312,135.681 346.47,133.412 346.902,131.517 C347.259,129.962 347.852,124.428 350.294,125.171 C352.902,125.964 351.546,130.319 351.302,132.05 C350.878,135.056 350.251,137.993 349.466,140.926 C351.044,139.979 350.921,139.311 351.536,138.53 C352.219,137.665 352.694,136.665 353.181,135.685 C353.558,134.924 354.523,132.383 355.739,132.72 C356.769,133.005 357.08,134.613 357.096,135.503 C357.118,136.757 356.743,137.978 356.249,139.117 C355.103,141.75 354.527,142.583 352.463,144.554 C352.463,144.554 352.148,156.54 345.839,158.748 L336.572,157.623" fill-opacity="0" stroke="#414241" stroke-width="1.701" stroke-linecap="round" stroke-linejoin="round"/>
      </g>
      <g>
        <path d="M337.007,157.013 C337.007,157.013 332.59,153.07 332.274,147.866 C332.274,147.866 330.382,139.821 328.017,137.14 C325.65,134.46 326.912,133.513 330.067,134.302 C330.067,134.302 335.271,137.613 336.376,142.345 C336.376,142.345 345.05,141.398 345.05,151.493" fill="#F3B9A0"/>
        <path d="M337.007,157.013 C337.007,157.013 332.59,153.07 332.274,147.866 C332.274,147.866 330.382,139.821 328.017,137.14 C325.65,134.46 326.912,133.513 330.067,134.302 C330.067,134.302 335.271,137.613 336.376,142.345 C336.376,142.345 345.05,141.398 345.05,151.493" fill-opacity="0" stroke="#414241" stroke-width="1.701" stroke-linecap="round" stroke-linejoin="round"/>
      </g>
      <g>
        <path d="M256.192,219.167 C256.192,219.167 248.692,291.667 248.192,319.667 L265.942,319.667 C265.942,319.667 271.192,247.417 279.442,244.417 C279.442,244.417 288.942,251.667 289.942,319.917 L308.442,319.917 C308.442,319.917 306.692,260.667 306.942,244.167 C307.192,227.667 305.942,218.417 305.942,218.417 L256.192,219.167 z" fill="#F3B9A0"/>
        <path d="M256.192,219.167 C256.192,219.167 248.692,291.667 248.192,319.667 L265.942,319.667 C265.942,319.667 271.192,247.417 279.442,244.417 C279.442,244.417 288.942,251.667 289.942,319.917 L308.442,319.917 C308.442,319.917 306.692,260.667 306.942,244.167 C307.192,227.667 305.942,218.417 305.942,218.417 L256.192,219.167 z" fill-opacity="0" stroke="#414241" stroke-width="1.701" stroke-linecap="round" stroke-linejoin="round"/>
      </g>
      <g>
        <path d="M257.562,211.615 C257.562,211.615 235.781,238.145 226.252,287.151 C226.252,287.151 286.216,307.843 327.262,289.329 C327.262,289.329 323.178,237.753 307.114,212.704 L257.562,211.615 z" fill="#777776"/>
        <path d="M257.562,211.615 C257.562,211.615 235.781,238.145 226.252,287.151 C226.252,287.151 286.216,307.843 327.262,289.329 C327.262,289.329 323.178,237.753 307.114,212.704 L257.562,211.615 z" fill-opacity="0" stroke="#414241" stroke-width="1.701" stroke-linecap="round" stroke-linejoin="round"/>
      </g>
      <g>
        <path d="M231.471,246.588 C231.471,246.588 234.983,254.62 227.153,258.033 L215.613,257.796 L215.906,250.751 L224.713,241.651 L231.471,246.588 z" fill="#F3B9A0"/>
        <path d="M231.471,246.588 C231.471,246.588 234.983,254.62 227.153,258.033 L215.613,257.796 L215.906,250.751 L224.713,241.651 L231.471,246.588 z" fill-opacity="0" stroke="#414241" stroke-width="1.701" stroke-linecap="round" stroke-linejoin="round"/>
      </g>
      <g>
        <path d="M226.088,262.364 C226.088,262.364 229.301,265.376 231.107,261.26 C232.914,257.144 230.605,252.625 227.393,254.533 L226.088,262.364 z" fill="#F3B9A0"/>
        <path d="M226.088,262.364 C226.088,262.364 229.301,265.376 231.107,261.26 C232.914,257.144 230.605,252.625 227.393,254.533 L226.088,262.364 z" fill-opacity="0" stroke="#414241" stroke-width="1.701" stroke-linecap="round" stroke-linejoin="round"/>
      </g>
      <g>
        <path d="M218.441,261.611 C218.441,261.611 219.547,265.125 224.867,263.72 C226.92,263.178 228.647,261.557 229.256,259.508 C229.598,258.358 229.983,256.224 229.167,255.233 C228.875,254.88 228.518,254.665 228.061,254.596 C227.714,254.543 226.253,254.749 226.172,255.186 C226.172,255.186 225.368,259.503 218.441,261.611 z" fill="#F3B9A0"/>
        <path d="M218.441,261.611 C218.441,261.611 219.547,265.125 224.867,263.72 C226.92,263.178 228.647,261.557 229.256,259.508 C229.598,258.358 229.983,256.224 229.167,255.233 C228.875,254.88 228.518,254.665 228.061,254.596 C227.714,254.543 226.253,254.749 226.172,255.186 C226.172,255.186 225.368,259.503 218.441,261.611 z" fill-opacity="0" stroke="#414241" stroke-width="1.701" stroke-linecap="round" stroke-linejoin="round"/>
      </g>
      <g>
        <path d="M213.815,257.754 C213.815,257.754 214.116,263.376 218.935,263.075 C218.935,263.075 225.863,262.874 227.871,256.851 C227.871,256.851 229.678,251.43 224.257,253.036 C224.257,253.036 221.646,257.754 213.815,257.754 z" fill="#F3B9A0"/>
        <path d="M213.815,257.754 C213.815,257.754 214.116,263.376 218.935,263.075 C218.935,263.075 225.863,262.874 227.871,256.851 C227.871,256.851 229.678,251.43 224.257,253.036 C224.257,253.036 221.646,257.754 213.815,257.754 z" fill-opacity="0" stroke="#414241" stroke-width="1.701" stroke-linecap="round" stroke-linejoin="round"/>
      </g>
      <g>
        <path d="M220.505,242.143 C220.505,242.143 207.204,250.364 212.767,258.104 C212.767,258.104 216.152,262.216 222.198,259.314 C222.198,259.313 229.212,255.927 226.31,252.541 C226.31,252.541 224.133,251.333 219.296,256.411" fill="#F3B9A0"/>
        <path d="M220.505,242.143 C220.505,242.143 207.204,250.364 212.767,258.104 C212.767,258.104 216.152,262.216 222.198,259.314 C222.198,259.313 229.212,255.927 226.31,252.541 C226.31,252.541 224.133,251.333 219.296,256.411" fill-opacity="0" stroke="#414241" stroke-width="1.701" stroke-linecap="round" stroke-linejoin="round"/>
      </g>
      <g>
        <path d="M222.234,242.07 C222.234,242.07 209.863,253.992 214.942,256.169 C214.942,256.169 217.603,256.652 220.505,251.332 C220.505,251.332 230.084,254.491 230.567,245.785" fill="#F3B9A0"/>
        <path d="M222.234,242.07 C222.234,242.07 209.863,253.992 214.942,256.169 C214.942,256.169 217.603,256.652 220.505,251.332 C220.505,251.332 230.084,254.491 230.567,245.785" fill-opacity="0" stroke="#414241" stroke-width="1.701" stroke-linecap="round" stroke-linejoin="round"/>
      </g>
      <g>
        <path d="M333.523,185.866 L324.267,151.017 C321,135.77 315.554,127.329 304.275,124.874 C292.997,122.419 273.218,123.936 273.218,123.936 C273.218,123.936 254.4,124.293 245.988,139.181 C237.57,154.063 229.858,193.014 229.858,193.014 L217.908,242.691 C217.908,242.691 228.305,247.527 234.112,245.11 L247.172,196.154 L259.739,158.62" fill="#949594"/>
        <path d="M333.523,185.866 L324.267,151.017 C321,135.77 315.554,127.329 304.275,124.874 C292.997,122.419 273.218,123.936 273.218,123.936 C273.218,123.936 254.4,124.293 245.988,139.181 C237.57,154.063 229.858,193.014 229.858,193.014 L217.908,242.691 C217.908,242.691 228.305,247.527 234.112,245.11 L247.172,196.154 L259.739,158.62" fill-opacity="0" stroke="#414241" stroke-width="1.701" stroke-linecap="round" stroke-linejoin="round"/>
      </g>
      <g>
        <path d="M255.579,149.826 C255.579,149.826 252.457,165.839 259.093,178.459 C259.093,178.459 256.671,202.176 254.567,212.208 C254.567,212.208 263.824,220.87 282.065,220.87 C282.065,220.87 302.554,221.96 311.062,214.88 C306.027,198.003 315.557,156.737 315.557,156.737" fill="#949594"/>
        <path d="M255.579,149.826 C255.579,149.826 252.457,165.839 259.093,178.459 C259.093,178.459 256.671,202.176 254.567,212.208 C254.567,212.208 263.824,220.87 282.065,220.87 C282.065,220.87 302.554,221.96 311.062,214.88 C306.027,198.003 315.557,156.737 315.557,156.737" fill-opacity="0" stroke="#414241" stroke-width="1.701" stroke-linecap="round" stroke-linejoin="round"/>
      </g>
      <path d="M281.416,182.351 C281.416,182.351 269.037,167.092 269.037,135.096 L272.854,125.702 L295.456,125.702 L298.685,135.977 C298.685,135.977 297.441,166.325 281.416,182.351" fill="#FFFFFE"/>
      <g>
        <path d="M277.748,154.032 C277.748,154.032 274.511,164.714 276.131,173.13 L281.416,182.351 L288.75,172.641 C288.75,172.641 289.884,160.344 288.591,153.874 L277.748,154.032 z" fill="#EBA3BF"/>
        <path d="M277.748,154.032 C277.748,154.032 274.511,164.714 276.131,173.13 L281.416,182.351 L288.75,172.641 C288.75,172.641 289.884,160.344 288.591,153.874 L277.748,154.032 z" fill-opacity="0" stroke="#414241" stroke-width="1.701" stroke-linecap="round" stroke-linejoin="round"/>
      </g>
      <g>
        <path d="M274.521,138.66 C274.521,138.66 276.344,143.731 278.883,146.105 L287.295,146.594 C287.295,146.594 291.827,143.193 293.606,138.826 C293.606,138.826 282.276,136.191 274.521,138.66 z" fill="#EBA3BF"/>
        <path d="M274.521,138.66 C274.521,138.66 276.344,143.731 278.883,146.105 L287.295,146.594 C287.295,146.594 291.827,143.193 293.606,138.826 C293.606,138.826 282.276,136.191 274.521,138.66 z" fill-opacity="0" stroke="#414241" stroke-width="1.701" stroke-linecap="round" stroke-linejoin="round"/>
      </g>
      <path d="M279.151,178.399 L276.492,172.466 L279.526,154.489 L281.849,153.973 L279.151,178.399" fill="#E88FB2"/>
      <path d="M283.415,179.704 L286.427,175.717 L285.687,155.576 L283.982,155.275 L283.415,179.704" fill="#E88FB2"/>
      <g>
        <path d="M276.344,143.713 C276.344,143.713 272.008,148.728 277.188,156.174 C277.188,156.174 278.481,158.868 280.693,156.657 C280.693,156.657 282.284,159.166 284.467,156.981 C284.467,156.981 286.411,160.058 288.189,156.657 C288.189,156.657 292.654,149.961 289.431,143.824 C289.431,143.824 288.513,140.8 285.601,143.711 C285.601,143.711 282.158,141.385 280.693,143.716 C280.693,143.716 277.841,140.372 276.344,143.713 z" fill="#EBA3BF"/>
        <path d="M276.344,143.713 C276.344,143.713 272.008,148.728 277.188,156.174 C277.188,156.174 278.481,158.868 280.693,156.657 C280.693,156.657 282.284,159.166 284.467,156.981 C284.467,156.981 286.411,160.058 288.189,156.657 C288.189,156.657 292.654,149.961 289.431,143.824 C289.431,143.824 288.513,140.8 285.601,143.711 C285.601,143.711 282.158,141.385 280.693,143.716 C280.693,143.716 277.841,140.372 276.344,143.713 z" fill-opacity="0" stroke="#414241" stroke-width="1.701" stroke-linecap="round" stroke-linejoin="round"/>
      </g>
      <path d="M281.183,145.535 C281.183,145.535 280.753,150.961 282.148,154.953 C282.148,154.953 275.659,150.089 281.183,145.535" fill="#E88FB2"/>
      <path d="M284.524,145.878 C284.524,145.878 285.163,150.832 283.898,154.665 C283.898,154.665 291.021,151.381 284.524,145.878" fill="#E88FB2"/>
      <g>
        <path d="M308.747,167.624 C308.747,167.624 320.183,206.014 333.251,206.014 C333.251,206.014 347.682,205.469 350.948,157.006 L333.251,154.828 C333.251,154.828 331.617,176.336 330.256,188.044" fill="#949594"/>
        <path d="M308.747,167.624 C308.747,167.624 320.183,206.014 333.251,206.014 C333.251,206.014 347.682,205.469 350.948,157.006 L333.251,154.828 C333.251,154.828 331.617,176.336 330.256,188.044" fill-opacity="0" stroke="#414241" stroke-width="1.701" stroke-linecap="round" stroke-linejoin="round"/>
      </g>
      <path d="M281.416,182.351 C281.416,182.351 269.037,167.092 269.037,135.096 L272.854,125.702 L295.456,125.702 L298.685,135.977 C298.685,135.977 297.441,166.325 281.416,182.351 z" fill-opacity="0" stroke="#414241" stroke-width="1.701" stroke-linecap="round" stroke-linejoin="round"/>
      <g>
        <path d="M277.058,118.045 C275.688,118.686 274.37,119.474 273.649,120.347 C271.843,122.543 270.623,125.506 269.657,128.143 C269.655,128.148 264.157,143.192 264.157,143.192 C264.157,143.192 274.836,132.514 282.278,143.842 C282.278,143.842 293.2,134.698 302.18,143.68 C302.18,143.68 299.595,126.229 299.593,126.202 C298.41,118.988 290.221,115.187 283.507,116.121 C281.35,116.42 279.033,117.128 277.058,118.045 z" fill="#FFFFFE"/>
        <path d="M277.058,118.045 C275.688,118.686 274.37,119.474 273.649,120.347 C271.843,122.543 270.623,125.506 269.657,128.143 C269.655,128.148 264.157,143.192 264.157,143.192 C264.157,143.192 274.836,132.514 282.278,143.842 C282.278,143.842 293.2,134.698 302.18,143.68 C302.18,143.68 299.595,126.229 299.593,126.202 C298.41,118.988 290.221,115.187 283.507,116.121 C281.35,116.42 279.033,117.128 277.058,118.045 z" fill-opacity="0" stroke="#414241" stroke-width="1.701" stroke-linecap="round" stroke-linejoin="round"/>
      </g>
      <g>
        <path d="M276.616,115.363 C276.616,115.363 282.365,124.227 275.808,129.764 L282.278,143.842 L293.768,128.956 C293.768,128.956 287.192,125.537 291.985,115.362 L276.616,115.363 z" fill="#F3B9A0"/>
        <path d="M276.616,115.363 C276.616,115.363 282.365,124.227 275.808,129.764 L282.278,143.842 L293.768,128.956 C293.768,128.956 287.192,125.537 291.985,115.362 L276.616,115.363 z" fill-opacity="0" stroke="#414241" stroke-width="1.701" stroke-linecap="round" stroke-linejoin="round"/>
      </g>
      <g>
        <path d="M249.451,84.25 C249.451,84.25 241.418,78.788 240.131,89.71 C240.131,89.71 240.777,99.349 249.77,99.029 C249.77,99.029 258.767,96.137 249.451,84.25 z" fill="#F3B9A0"/>
        <path d="M249.451,84.25 C249.451,84.25 241.418,78.788 240.131,89.71 C240.131,89.71 240.777,99.349 249.77,99.029 C249.77,99.029 258.767,96.137 249.451,84.25 z" fill-opacity="0" stroke="#414241" stroke-width="1.701" stroke-linecap="round" stroke-linejoin="round"/>
      </g>
      <g>
        <path d="M323.316,91.09 C322.535,84.45 319.262,83.868 316.815,84.431 C318.924,67.556 313.035,53.504 313.035,53.504 L305.026,39.297 L274.659,38.215 L249.796,53.504 C249.796,53.504 241.444,73.419 248.19,94.303 C247.272,95.092 246.978,96.172 246.631,97.302 C244.883,102.989 246.568,107.432 251.068,111.246 C261.833,120.361 277.809,121.591 291.167,119.547 C295.062,118.948 298.965,118.221 302.734,117.045 C309.825,114.833 316.714,110.049 316.873,101.744 C316.883,101.189 316.849,100.623 316.795,100.058 C322.824,98.362 323.316,91.09 323.316,91.09 z" fill="#F3B9A0"/>
        <path d="M323.316,91.09 C322.535,84.45 319.262,83.868 316.815,84.431 C318.924,67.556 313.035,53.504 313.035,53.504 L305.026,39.297 L274.659,38.215 L249.796,53.504 C249.796,53.504 241.444,73.419 248.19,94.303 C247.272,95.092 246.978,96.172 246.631,97.302 C244.883,102.989 246.568,107.432 251.068,111.246 C261.833,120.361 277.809,121.591 291.167,119.547 C295.062,118.948 298.965,118.221 302.734,117.045 C309.825,114.833 316.714,110.049 316.873,101.744 C316.883,101.189 316.849,100.623 316.795,100.058 C322.824,98.362 323.316,91.09 323.316,91.09 z" fill-opacity="0" stroke="#414241" stroke-width="1.701" stroke-linecap="round" stroke-linejoin="round"/>
      </g>
      <path d="M280.268,91.261 C280.268,91.261 273.657,92.544 280.268,95.761" fill-opacity="0" stroke="#414241" stroke-width="1.701" stroke-linecap="round" stroke-linejoin="round"/>
      <path d="M295.394,81.544 C295.392,84.282 296.816,86.506 298.579,86.506 C300.342,86.506 301.767,84.282 301.767,81.546 C301.767,78.807 300.34,76.584 298.579,76.584 C296.821,76.589 295.392,78.809 295.394,81.544" fill="#414241"/>
      <path d="M260.813,81.544 C260.811,84.282 262.236,86.506 263.999,86.506 C265.762,86.506 267.186,84.282 267.186,81.546 C267.186,78.807 265.76,76.584 263.999,76.584 C262.241,76.589 260.811,78.809 260.813,81.544" fill="#414241"/>
      <g>
        <path d="M329.77,66.203 C329.45,57.745 327.824,49.552 323.526,42.302 C320.243,36.762 314.226,31.906 308.541,28.863 C307.967,28.556 306.198,27.804 304.729,27.804 C304.731,27.804 308.587,23.947 311.797,23.949 C311.797,23.949 300.394,20.573 295.093,25.874 C295.093,25.874 290.918,19.451 284.811,21.701 C284.811,21.701 288.349,22.984 289.31,25.234 C289.31,25.234 261.683,17.201 244.334,44.507 C244.334,44.507 230.199,66.03 248.19,94.303 C248.19,94.303 243.692,73.742 251.403,61.857 C251.403,61.857 257.185,53.824 262.645,53.824 C262.645,53.824 258.687,59.738 254.294,62.179 C254.294,62.179 284.49,60.25 293.808,46.439 C293.808,46.439 297.592,63.447 311.405,69.555 L309.227,60.252 C309.227,60.252 320.378,71.814 314.641,94.303 C315.114,92.45 317.973,86.283 319.075,84.495 C319.075,84.495 323.233,86.66 323.111,89.79 C323.111,89.79 330.139,75.973 329.77,66.203 z" fill="#8B6B46"/>
        <path d="M329.77,66.203 C329.45,57.745 327.824,49.552 323.526,42.302 C320.243,36.762 314.226,31.906 308.541,28.863 C307.967,28.556 306.198,27.804 304.729,27.804 C304.731,27.804 308.587,23.947 311.797,23.949 C311.797,23.949 300.394,20.573 295.093,25.874 C295.093,25.874 290.918,19.451 284.811,21.701 C284.811,21.701 288.349,22.984 289.31,25.234 C289.31,25.234 261.683,17.201 244.334,44.507 C244.334,44.507 230.199,66.03 248.19,94.303 C248.19,94.303 243.692,73.742 251.403,61.857 C251.403,61.857 257.185,53.824 262.645,53.824 C262.645,53.824 258.687,59.738 254.294,62.179 C254.294,62.179 284.49,60.25 293.808,46.439 C293.808,46.439 297.592,63.447 311.405,69.555 L309.227,60.252 C309.227,60.252 320.378,71.814 314.641,94.303 C315.114,92.45 317.973,86.283 319.075,84.495 C319.075,84.495 323.233,86.66 323.111,89.79 C323.111,89.79 330.139,75.973 329.77,66.203 z" fill-opacity="0" stroke="#414241" stroke-width="1.701" stroke-linecap="round" stroke-linejoin="round"/>
      </g>
      <path d="M264.005,32.787 C264.005,32.787 249.984,37.761 248.261,54.982 L263.906,43.285 L262.708,50.083 L276.102,43.681 L273.704,49.83 L290.625,38.356 L281.452,40.682 L283.054,36.581 L270.229,42.207 L273.604,37.983 L259.808,41.683 L264.005,32.787" fill="#A88155"/>
      <path d="M296.901,42.53 L308.85,54.274 L310.049,47.476 L322.37,57.099 C322.37,57.099 325.16,51.352 314.946,39.577 L315.723,47.601 L307.274,40.854 L306.299,46.378 L296.901,42.53" fill="#A88155"/>
      <g>
        <path d="M273.166,100.956 C273.166,100.956 279.973,104.621 289.92,100.433 C289.92,100.433 289.396,113.522 280.758,113.522 C280.758,113.521 273.166,112.735 273.166,100.956 z" fill="#E5787A"/>
        <path d="M273.166,100.956 C273.166,100.956 279.973,104.621 289.92,100.433 C289.92,100.433 289.396,113.522 280.758,113.522 C280.758,113.521 273.166,112.735 273.166,100.956 z" fill-opacity="0" stroke="#414241" stroke-width="1.701" stroke-linecap="round" stroke-linejoin="round"/>
      </g>
      <path d="M270.244,70.372 C270.244,70.372 261.345,62.78 255.061,71.942 M289.839,69.603 C289.839,69.602 298.063,61.285 305.1,69.883" fill-opacity="0" stroke="#414241" stroke-width="1.701" stroke-linecap="round" stroke-linejoin="round"/>
      <path d="M330.256,188.044 C331.617,176.336 333.251,154.828 333.251,154.828 L350.948,157.006 C347.682,205.469 333.251,206.014 333.251,206.014 C320.183,206.014 308.747,167.624 308.747,167.624 L315.442,146.667 L321.942,165.917 L335.192,182.917" fill="#949594"/>
      <path d="M308.747,167.624 C308.747,167.624 320.183,206.014 333.251,206.014 C333.251,206.014 347.682,205.469 350.948,157.006 L333.251,154.828 C333.251,154.828 331.617,176.336 330.256,188.044" fill-opacity="0" stroke="#414241" stroke-width="1.701" stroke-linecap="round" stroke-linejoin="round"/>
      <path d="M313.069,97.761 C313.069,103.256 308.614,107.71 303.12,107.71 C297.625,107.71 293.171,103.256 293.171,97.761 C293.171,92.266 297.625,87.811 303.12,87.811 C308.614,87.811 313.069,92.266 313.069,97.761 z" fill="url(#Gradient_3)"/>
      <path d="M269.246,97.761 C269.246,103.256 264.791,107.71 259.297,107.71 C253.802,107.71 249.348,103.256 249.348,97.761 C249.348,92.266 253.802,87.811 259.297,87.811 C264.791,87.811 269.246,92.266 269.246,97.761 z" fill="url(#Gradient_4)"/>
      <path d="M29.573,164.517 C31,174.975 27.434,256.023 27.434,256.023 C64.511,267.193 97.073,256.26 97.073,256.26 C94.222,240.573 96.598,163.804 96.598,163.804 L90.728,151.322 L46.583,149.065 L30.28,150.318 L27.02,159.349 L29.573,164.517" fill="#777776"/>
      <g>
        <path d="M5.237,280.746 C-3.063,272.83 10.45,258.352 10.45,258.352 L21.551,258.651 L23.136,262.953" fill="#F3B9A0"/>
        <path d="M5.237,280.746 C-3.063,272.83 10.45,258.352 10.45,258.352 L21.551,258.651 L23.136,262.953" fill-opacity="0" stroke="#414241" stroke-width="1.701" stroke-linecap="round" stroke-linejoin="round"/>
      </g>
      <g>
        <path d="M8.906,275.533 C8.906,275.533 7.555,281.324 9.679,284.414 C9.679,284.414 2.15,285.57 4.273,273.409" fill="#F3B9A0"/>
        <path d="M8.906,275.533 C8.906,275.533 7.555,281.324 9.679,284.414 C9.679,284.414 2.15,285.57 4.273,273.409" fill-opacity="0" stroke="#414241" stroke-width="1.701" stroke-linecap="round" stroke-linejoin="round"/>
      </g>
      <g>
        <path d="M13.154,275.533 C13.154,275.533 10.45,279.972 12.959,284.992 C12.959,284.992 10.257,287.696 8.328,284.8 C8.328,284.8 4.851,281.325 7.361,273.023" fill="#F3B9A0"/>
        <path d="M13.154,275.533 C13.154,275.533 10.45,279.972 12.959,284.992 C12.959,284.992 10.257,287.696 8.328,284.8 C8.328,284.8 4.851,281.325 7.361,273.023" fill-opacity="0" stroke="#414241" stroke-width="1.701" stroke-linecap="round" stroke-linejoin="round"/>
      </g>
      <g>
        <path d="M22.806,260.861 C22.806,260.861 26.087,271.285 23.578,275.918 C23.578,275.918 20.681,280.359 19.331,280.553 C19.331,280.553 16.242,279.974 18.751,275.533 C18.751,275.533 20.876,272.444 17.98,269.935 C17.98,269.935 14.311,276.691 14.503,279.588 C14.503,279.588 14.117,281.711 15.47,284.221 C15.47,284.221 15.664,288.08 11.801,285.572 C11.801,285.572 6.976,281.711 11.609,273.023" fill="#F3B9A0"/>
        <path d="M22.806,260.861 C22.806,260.861 26.087,271.285 23.578,275.918 C23.578,275.918 20.681,280.359 19.331,280.553 C19.331,280.553 16.242,279.974 18.751,275.533 C18.751,275.533 20.876,272.444 17.98,269.935 C17.98,269.935 14.311,276.691 14.503,279.588 C14.503,279.588 14.117,281.711 15.47,284.221 C15.47,284.221 15.664,288.08 11.801,285.572 C11.801,285.572 6.976,281.711 11.609,273.023" fill-opacity="0" stroke="#414241" stroke-width="1.701" stroke-linecap="round" stroke-linejoin="round"/>
      </g>
      <g>
        <path d="M106.862,279.005 L108.578,277.074 C112.439,270.854 104.718,259.484 104.718,259.484 L95.521,259.411 L92.353,260.316 L93.71,266.202 L96.201,272.315 L97.333,276.615" fill="#F3B9A0"/>
        <path d="M106.862,279.005 L108.578,277.074 C112.439,270.854 104.718,259.484 104.718,259.484 L95.521,259.411 L92.353,260.316 L93.71,266.202 L96.201,272.315 L97.333,276.615" fill-opacity="0" stroke="#414241" stroke-width="1.701" stroke-linecap="round" stroke-linejoin="round"/>
      </g>
      <g>
        <path d="M106.648,270.854 C106.648,270.854 109.866,281.364 103.216,282.866 C103.216,282.866 100.642,282.866 99.784,282.436" fill="#F3B9A0"/>
        <path d="M106.648,270.854 C106.648,270.854 109.866,281.364 103.216,282.866 C103.216,282.866 100.642,282.866 99.784,282.436" fill-opacity="0" stroke="#414241" stroke-width="1.701" stroke-linecap="round" stroke-linejoin="round"/>
      </g>
      <g>
        <path d="M103.86,272.57 C103.86,272.57 105.79,283.51 100.214,283.939 C100.214,283.939 97.638,283.938 96.138,282.65" fill="#F3B9A0"/>
        <path d="M103.86,272.57 C103.86,272.57 105.79,283.51 100.214,283.939 C100.214,283.939 97.638,283.938 96.138,282.65" fill-opacity="0" stroke="#414241" stroke-width="1.701" stroke-linecap="round" stroke-linejoin="round"/>
      </g>
      <g>
        <path d="M100.214,273.215 C100.214,273.215 101.286,284.796 95.708,284.152 C95.708,284.152 92.92,283.939 91.204,281.578 C91.204,281.578 90.989,278.576 94.85,279.863 C94.85,279.863 95.923,276.002 95.493,273.215 C95.493,273.215 90.774,268.065 92.704,259.484" fill="#F3B9A0"/>
        <path d="M100.214,273.215 C100.214,273.215 101.286,284.796 95.708,284.152 C95.708,284.152 92.92,283.939 91.204,281.578 C91.204,281.578 90.989,278.576 94.85,279.863 C94.85,279.863 95.923,276.002 95.493,273.215 C95.493,273.215 90.774,268.065 92.704,259.484" fill-opacity="0" stroke="#414241" stroke-width="1.701" stroke-linecap="round" stroke-linejoin="round"/>
      </g>
      <g>
        <path d="M106.845,255.202 L107.558,259.718 C107.558,259.718 99.953,262.333 92.347,260.669 L92.108,255.915 L106.845,255.202 z" fill="#FFFFFE"/>
        <path d="M106.845,255.202 L107.558,259.718 C107.558,259.718 99.953,262.333 92.347,260.669 L92.108,255.915 L106.845,255.202 z" fill-opacity="0" stroke="#414241" stroke-width="1.701" stroke-linecap="round" stroke-linejoin="round"/>
      </g>
      <g>
        <path d="M24.677,254.373 L24.677,260.077 C24.677,260.077 14.218,261.978 7.564,259.364 L8.515,253.898 L24.677,254.373 z" fill="#FFFFFE"/>
        <path d="M24.677,254.373 L24.677,260.077 C24.677,260.077 14.218,261.978 7.564,259.364 L8.515,253.898 L24.677,254.373 z" fill-opacity="0" stroke="#414241" stroke-width="1.701" stroke-linecap="round" stroke-linejoin="round"/>
      </g>
      <g>
        <path d="M92.32,253.408 C92.32,253.408 94.261,296.903 94.598,313.778 L67.74,313.778 C67.74,313.778 66.413,284.782 65.225,279.553 L62.987,313.778 L31.612,313.778 C31.612,313.778 30.286,302.37 29.573,293.338 C28.86,284.306 28.36,257.924 32.057,247.229 L92.32,253.408 z" fill="#777776"/>
        <path d="M92.32,253.408 C92.32,253.408 94.261,296.903 94.598,313.778 L67.74,313.778 C67.74,313.778 66.413,284.782 65.225,279.553 L62.987,313.778 L31.612,313.778 C31.612,313.778 30.286,302.37 29.573,293.338 C28.86,284.306 28.36,257.924 32.057,247.229 L92.32,253.408 z" fill-opacity="0" stroke="#414241" stroke-width="1.701" stroke-linecap="round" stroke-linejoin="round"/>
      </g>
      <g>
        <path d="M91.846,257.57 C103.73,260.185 108.958,255.193 108.958,255.193 C106.343,241.884 106.106,171.648 106.106,171.648 C106.106,153.822 103.254,145.979 103.254,145.979 C96.836,131.957 74.732,126.489 74.732,126.489 C73.87,126.364 72.999,126.28 72.132,126.195 C69.81,125.968 67.481,125.838 65.148,125.787 C64.065,125.764 62.981,125.756 61.897,125.764" fill="#777776"/>
        <path d="M91.846,257.57 C103.73,260.185 108.958,255.193 108.958,255.193 C106.343,241.884 106.106,171.648 106.106,171.648 C106.106,153.822 103.254,145.979 103.254,145.979 C96.836,131.957 74.732,126.489 74.732,126.489 C73.87,126.364 72.999,126.28 72.132,126.195 C69.81,125.968 67.481,125.838 65.148,125.787 C64.065,125.764 62.981,125.756 61.897,125.764" fill-opacity="0" stroke="#414241" stroke-width="1.701" stroke-linecap="round" stroke-linejoin="round"/>
      </g>
      <g>
        <path d="M96.598,163.804 C96.598,163.804 94.222,240.573 97.073,256.26 C97.073,256.26 64.511,267.193 27.434,256.023 C27.434,256.022 31,174.975 29.573,164.517" fill="#777776"/>
        <path d="M96.598,163.804 C96.598,163.804 94.222,240.573 97.073,256.26 C97.073,256.26 64.511,267.193 27.434,256.023 C27.434,256.022 31,174.975 29.573,164.517" fill-opacity="0" stroke="#414241" stroke-width="1.701" stroke-linecap="round" stroke-linejoin="round"/>
      </g>
      <g>
        <path d="M61.897,125.764 C59.685,125.779 57.473,125.862 55.267,126.009 C49.235,126.408 43.384,127.478 37.628,129.331 C31.071,131.441 24.536,134.054 19.966,139.448 C16.678,143.33 14.144,147.98 12.319,152.713 C9.329,160.465 8.037,168.733 7.409,176.982 C6.712,186.143 6.477,195.331 6.282,204.514 C6.094,213.396 5.851,222.277 5.58,231.158 C5.396,237.216 5.309,252.019 5.262,253.565 C5.24,254.264 5.219,254.963 5.197,255.663 C5.196,255.709 5.194,255.756 5.193,255.802 C5.193,255.802 18.401,258.637 27.434,256.023 L31,178.611" fill="#777776"/>
        <path d="M61.897,125.764 C59.685,125.779 57.473,125.862 55.267,126.009 C49.235,126.408 43.384,127.478 37.628,129.331 C31.071,131.441 24.536,134.054 19.966,139.448 C16.678,143.33 14.144,147.98 12.319,152.713 C9.329,160.465 8.037,168.733 7.409,176.982 C6.712,186.143 6.477,195.331 6.282,204.514 C6.094,213.396 5.851,222.277 5.58,231.158 C5.396,237.216 5.309,252.019 5.262,253.565 C5.24,254.264 5.219,254.963 5.197,255.663 C5.196,255.709 5.194,255.756 5.193,255.802 C5.193,255.802 18.401,258.637 27.434,256.023 L31,178.611" fill-opacity="0" stroke="#414241" stroke-width="1.701" stroke-linecap="round" stroke-linejoin="round"/>
      </g>
      <g>
        <path d="M62.137,118.883 C62.137,118.883 73.545,117.219 78.536,129.578 L88.519,149.543 L76.635,154.772 L87.093,163.804 L73.427,193.633 L44.786,167.845 L54.294,159.051 L40.271,155.01 C40.271,155.01 41.459,142.651 41.459,135.283 C41.459,127.915 45.262,118.883 62.137,118.883 z" fill="#777776"/>
        <path d="M62.137,118.883 C62.137,118.883 73.545,117.219 78.536,129.578 L88.519,149.543 L76.635,154.772 L87.093,163.804 L73.427,193.633 L44.786,167.845 L54.294,159.051 L40.271,155.01 C40.271,155.01 41.459,142.651 41.459,135.283 C41.459,127.915 45.262,118.883 62.137,118.883 z" fill-opacity="0" stroke="#414241" stroke-width="1.701" stroke-linecap="round" stroke-linejoin="round"/>
      </g>
      <g>
        <path d="M63.21,138.963 L72.607,147.791 L73.427,193.633 L56.141,149.947 L63.21,138.963 z" fill="#FFFFFE"/>
        <path d="M63.21,138.963 L72.607,147.791 L73.427,193.633 L56.141,149.947 L63.21,138.963 z" fill-opacity="0" stroke="#414241" stroke-width="1.701" stroke-linecap="round" stroke-linejoin="round"/>
      </g>
      <g>
        <path d="M67.389,149.995 L73.077,174.028 L73.427,193.633 L65.973,175.394 L62.626,150.708 L67.389,149.995 z" fill="#00A3DA"/>
        <path d="M67.389,149.995 L73.077,174.028 L73.427,193.633 L65.973,175.394 L62.626,150.708 L67.389,149.995 z" fill-opacity="0" stroke="#414241" stroke-width="1.701" stroke-linecap="round" stroke-linejoin="round"/>
      </g>
      <g>
        <path d="M68.83,141.817 C68.83,141.817 69.978,146.644 68.315,150.922 C68.315,150.922 63.801,153.299 62.137,151.635 C62.137,151.635 59.122,146.265 59.122,142.889 C59.122,142.889 63.64,138.893 68.83,141.817 z" fill="#00A3DA"/>
        <path d="M68.83,141.817 C68.83,141.817 69.978,146.644 68.315,150.922 C68.315,150.922 63.801,153.299 62.137,151.635 C62.137,151.635 59.122,146.265 59.122,142.889 C59.122,142.889 63.64,138.893 68.83,141.817 z" fill-opacity="0" stroke="#414241" stroke-width="1.701" stroke-linecap="round" stroke-linejoin="round"/>
      </g>
      <g>
        <path d="M64.99,123.159 C64.99,123.159 71.884,123.159 72.358,135.043 L72.607,147.791 L63.21,138.963 L56.141,149.947 L48.59,132.666 C48.59,132.666 43.124,119.594 64.99,123.159 z" fill="#FFFFFE"/>
        <path d="M64.99,123.159 C64.99,123.159 71.884,123.159 72.358,135.043 L72.607,147.791 L63.21,138.963 L56.141,149.947 L48.59,132.666 C48.59,132.666 43.124,119.594 64.99,123.159 z" fill-opacity="0" stroke="#414241" stroke-width="1.701" stroke-linecap="round" stroke-linejoin="round"/>
      </g>
      <g>
        <path d="M67.131,114.6 C67.131,114.6 66.656,124.82 68.319,129.336 L63.21,138.963 L50.731,128.385 C50.731,128.385 51.445,120.78 50.731,113.649 L67.131,114.6 z" fill="#F3B9A0"/>
        <path d="M67.131,114.6 C67.131,114.6 66.656,124.82 68.319,129.336 L63.21,138.963 L50.731,128.385 C50.731,128.385 51.445,120.78 50.731,113.649 L67.131,114.6 z" fill-opacity="0" stroke="#414241" stroke-width="1.701" stroke-linecap="round" stroke-linejoin="round"/>
      </g>
      <path d="M16.684,87.522 C16.445,89.807 16.852,91.882 16.852,91.882 C18.495,102.766 27.941,100.918 27.941,100.918 C33.106,125.749 75.176,120.634 75.176,120.634 C109.267,113.446 96.329,90.856 96.329,90.856 C98.794,65.39 92.427,51.63 92.427,51.63 L77.351,38.066 L55.247,38.066 L32.058,50.189 L21.022,70.866 L16.684,87.522" fill="#F3B9A0"/>
      <path d="M91.61,78.472 C91.61,75.452 89.482,73.005 86.857,73.005 C84.232,73.005 82.104,75.452 82.104,78.472 M66.416,79.423 C66.416,76.403 63.969,73.956 60.95,73.956 C57.932,73.956 55.484,76.403 55.484,79.423 M76.4,83.463 C76.4,83.463 83.769,82.751 84.006,88.217 C84.006,88.217 84.007,94.397 76.4,94.397 M82.817,102.477 C82.817,102.477 73.31,110.32 63.09,102.239 M81.153,66.351 C81.153,66.351 85.67,59.694 92.087,66.825 M69.271,66.351 C69.271,66.351 60.713,59.933 54.296,67.064" fill-opacity="0" stroke="#414241" stroke-width="1.701" stroke-linecap="round" stroke-linejoin="round"/>
      <path d="M79.255,31.47 C79.255,31.47 90.414,34.925 93.071,47.679 L85.897,43.692 L87.491,48.21 L76.065,40.504 L80.849,41.302 L80.317,38.379 L87.757,40.771 L79.255,31.47" fill="#414241"/>
      <g clip-path="url(#Clip_1)">
        <path d="M48.635,85.428 C54.129,85.428 58.585,89.882 58.585,95.377 C58.585,100.872 54.129,105.326 48.635,105.326 C43.14,105.326 38.686,100.872 38.686,95.377 C38.686,89.882 43.14,85.428 48.635,85.428 z" fill="url(#Gradient_5)"/>
      </g>
      <g clip-path="url(#Clip_2)">
        <path d="M95.62,85.428 C96.663,85.481 96.304,85.412 96.713,85.495 C96.488,89.289 96.622,87.502 96.329,90.856 C98.512,95.071 99.587,100.384 98.061,104.984 C96.304,105.342 97.121,105.25 95.62,105.326 C90.125,105.326 85.671,100.872 85.671,95.377 C85.671,89.882 90.125,85.428 95.62,85.428 z" fill="url(#Gradient_6)"/>
      </g>
      <path d="M16.684,87.522 C16.445,89.807 16.852,91.882 16.852,91.882 C18.495,102.766 27.941,100.918 27.941,100.918 C33.106,125.749 75.176,120.634 75.176,120.634 C109.267,113.446 96.329,90.856 96.329,90.856 C98.794,65.39 92.427,51.63 92.427,51.63 L77.351,38.066 L55.247,38.066 L32.058,50.189 L21.022,70.866 L16.684,87.522 z" fill-opacity="0" stroke="#414241" stroke-width="1.701" stroke-linecap="round" stroke-linejoin="round"/>
      <g>
        <path d="M16.684,87.522 C17.035,84.157 18.787,80.338 25.3,82.037 C29.331,83.089 30.94,88.083 32.469,91.45 C32.789,92.156 33.106,92.863 33.425,93.57 C33.672,94.121 34.29,94.988 34.331,95.584 C34.331,95.584 33.382,81.799 39.561,66.825 C39.561,66.825 44.79,57.556 47.642,54.941 C47.642,54.941 46.69,63.974 42.888,69.678 C42.888,69.678 59.286,64.449 62.614,50.901 C62.614,50.901 63.328,60.171 57.861,66.351 C57.861,66.351 76.639,58.508 76.4,45.197 C76.4,45.197 93.239,53.753 96.44,69.678 C96.44,69.678 98.742,67.064 97.315,54.467 C97.315,54.467 99.93,58.27 100.881,64.449 C100.881,64.449 104.446,33.313 74.499,27.371 C74.499,27.371 57.995,19.527 45.026,28.797 C45.026,28.797 44.788,23.093 48.116,21.191 C48.116,21.191 37.659,22.855 37.184,31.649 C37.184,31.649 27.677,29.273 22.686,36.403 C22.686,36.403 29.95,34.025 31.004,36.878 C31.004,36.878 7.176,42.84 16.684,87.522 z" fill="#414241"/>
        <path d="M16.684,87.522 C17.035,84.157 18.787,80.338 25.3,82.037 C29.331,83.089 30.94,88.083 32.469,91.45 C32.789,92.156 33.106,92.863 33.425,93.57 C33.672,94.121 34.29,94.988 34.331,95.584 C34.331,95.584 33.382,81.799 39.561,66.825 C39.561,66.825 44.79,57.556 47.642,54.941 C47.642,54.941 46.69,63.974 42.888,69.678 C42.888,69.678 59.286,64.449 62.614,50.901 C62.614,50.901 63.328,60.171 57.861,66.351 C57.861,66.351 76.639,58.508 76.4,45.197 C76.4,45.197 93.239,53.753 96.44,69.678 C96.44,69.678 98.742,67.064 97.315,54.467 C97.315,54.467 99.93,58.27 100.881,64.449 C100.881,64.449 104.446,33.313 74.499,27.371 C74.499,27.371 57.995,19.527 45.026,28.797 C45.026,28.797 44.788,23.093 48.116,21.191 C48.116,21.191 37.659,22.855 37.184,31.649 C37.184,31.649 27.677,29.273 22.686,36.403 C22.686,36.403 29.95,34.025 31.004,36.878 C31.004,36.878 7.176,42.84 16.684,87.522 z" fill-opacity="0" stroke="#414241" stroke-width="1.417" stroke-linecap="round" stroke-linejoin="round"/>
      </g>
      <path d="M30.896,42.896 C30.896,42.896 16.281,49.007 19.204,69.998 L24.784,59.636 L26.644,68.67 L30.896,58.838 L32.058,67.075 L41.523,53.79 L33.553,59.104 L32.058,52.461 L28.504,58.041 L27.707,52.993 L23.455,57.244 C23.455,57.244 26.91,44.224 30.896,42.896" fill="#595A59"/>
      <path d="M207.247,264.099" fill="#A0D8EB"/>
      <path d="M207.247,264.099" fill-opacity="0" stroke="#414241" stroke-width="1.701" stroke-linecap="round" stroke-linejoin="round"/>
      <g>
        <path d="M268.149,227.365 C261.592,223.943 228.705,223.336 228.012,224.043 C227.81,224.248 226.353,224.148 226.086,224.176 C224.286,224.35 222.498,224.636 220.733,225.029 C215.176,226.266 209.626,228.453 204.885,231.624 C203.299,232.684 201.81,233.879 200.415,235.179 C195.014,240.219 194.232,247.72 193.986,254.697 C193.616,265.182 193.92,275.537 194.394,286.013 C194.531,289.059 194.652,292.107 194.711,295.156 C194.788,299.184 194.817,303.213 194.884,307.241 C195.008,314.73 195.141,322.219 195.269,329.709 C195.297,331.329 195.326,332.949 195.399,338.746 L220.265,338.478 L220.956,263.877 L267.556,262.05" fill="#A0D8EB"/>
        <path d="M268.149,227.365 C261.592,223.943 228.705,223.336 228.012,224.043 C227.81,224.248 226.353,224.148 226.086,224.176 C224.286,224.35 222.498,224.636 220.733,225.029 C215.176,226.266 209.626,228.453 204.885,231.624 C203.299,232.684 201.81,233.879 200.415,235.179 C195.014,240.219 194.232,247.72 193.986,254.697 C193.616,265.182 193.92,275.537 194.394,286.013 C194.531,289.059 194.652,292.107 194.711,295.156 C194.788,299.184 194.817,303.213 194.884,307.241 C195.008,314.73 195.141,322.219 195.269,329.709 C195.297,331.329 195.326,332.949 195.399,338.746 L220.265,338.478 L220.956,263.877 L267.556,262.05" fill-opacity="0" stroke="#414241" stroke-width="1.701" stroke-linecap="round" stroke-linejoin="round"/>
      </g>
      <path d="M205.971,253.631 C205.971,253.631 208.712,322.932 208.852,335.92 L282.987,335.149 L279.533,237.506 L271.553,232.468 L269.613,227.641 L259.572,229.462 L240.98,231.6" fill="#A0D8EB"/>
      <g>
        <path d="M240.986,243.291 L232.159,248.025 L238.834,295.716 L250.403,248.644 L240.986,243.291 z" fill="#FFFFFE"/>
        <path d="M240.986,243.291 L232.159,248.025 L238.834,295.716 L250.403,248.644 L240.986,243.291 z" fill-opacity="0" stroke="#414241" stroke-width="1.701" stroke-linecap="round" stroke-linejoin="round"/>
      </g>
      <g>
        <path d="M238.229,251.105 L235.041,270.856 L238.834,295.716 L244.654,272.039 L243.321,251.296 L238.229,251.105 z" fill="#E46E5F"/>
        <path d="M238.229,251.105 L235.041,270.856 L238.834,295.716 L244.654,272.039 L243.321,251.296 L238.229,251.105 z" fill-opacity="0" stroke="#414241" stroke-width="1.701" stroke-linecap="round" stroke-linejoin="round"/>
      </g>
      <g>
        <path d="M238.758,220.323 C238.758,220.323 230.121,221.651 228.509,232.793 L230.171,249.09 L240.986,243.291 L252.925,250.079 L254.927,229.542 C254.927,229.542 255.288,217.179 238.758,220.323 z" fill="#FFFFFE"/>
        <path d="M238.758,220.323 C238.758,220.323 230.121,221.651 228.509,232.793 L230.171,249.09 L240.986,243.291 L252.925,250.079 L254.927,229.542 C254.927,229.542 255.288,217.179 238.758,220.323 z" fill-opacity="0" stroke="#414241" stroke-width="1.701" stroke-linecap="round" stroke-linejoin="round"/>
      </g>
      <g>
        <path d="M229.108,219.437 C229.108,219.437 225.413,220.467 222.36,235.332 L217.848,252.437 L227.498,253.319 L222.156,262.279 L238.834,295.716 L229.636,229.99 C229.636,229.99 230.919,223.836 236.278,221.951 L229.108,219.437 z" fill="#A0D8EB"/>
        <path d="M229.108,219.437 C229.108,219.437 225.413,220.467 222.36,235.332 L217.848,252.437 L227.498,253.319 L222.156,262.279 L238.834,295.716 L229.636,229.99 C229.636,229.99 230.919,223.836 236.278,221.951 L229.108,219.437 z" fill-opacity="0" stroke="#414241" stroke-width="1.701" stroke-linecap="round" stroke-linejoin="round"/>
      </g>
      <g>
        <path d="M238.834,295.716 L254.811,230.711 C254.811,230.711 255.642,223.901 248.416,220.492 L253.337,217.538 C253.337,217.538 261.335,219.09 264.793,250.447 L253.45,253.039 L258.728,261.141 L238.834,295.716 z" fill="#A0D8EB"/>
        <path d="M238.834,295.716 L254.811,230.711 C254.811,230.711 255.642,223.901 248.416,220.492 L253.337,217.538 C253.337,217.538 261.335,219.09 264.793,250.447 L253.45,253.039 L258.728,261.141 L238.834,295.716 z" fill-opacity="0" stroke="#414241" stroke-width="1.701" stroke-linecap="round" stroke-linejoin="round"/>
      </g>
      <g>
        <path d="M233.539,217.907 C233.539,217.907 238.285,222.546 233.667,229.765 L240.986,243.291 L250.311,227.751 C250.311,227.751 246.964,224.687 248.851,216.258 L233.539,217.907 z" fill="#F3B9A0"/>
        <path d="M233.539,217.907 C233.539,217.907 238.285,222.546 233.667,229.765 L240.986,243.291 L250.311,227.751 C250.311,227.751 246.964,224.687 248.851,216.258 L233.539,217.907 z" fill-opacity="0" stroke="#414241" stroke-width="1.701" stroke-linecap="round" stroke-linejoin="round"/>
      </g>
      <g>
        <path d="M235.502,246.406 C235.502,246.406 235.24,253.553 236.929,255.205 L243.615,255.41 C243.615,255.41 246.687,252.731 246.622,246.681 L240.98,243.471 L235.502,246.406 z" fill="#E46E5F"/>
        <path d="M235.502,246.406 C235.502,246.406 235.24,253.553 236.929,255.205 L243.615,255.41 C243.615,255.41 246.687,252.731 246.622,246.681 L240.98,243.471 L235.502,246.406 z" fill-opacity="0" stroke="#414241" stroke-width="1.701" stroke-linecap="round" stroke-linejoin="round"/>
      </g>
      <path d="M282.987,335.149 L279.702,253.098 M207.301,260.296 C207.301,260.296 208.756,327.065 208.896,340.054" fill-opacity="0" stroke="#414241" stroke-width="1.701" stroke-linecap="round" stroke-linejoin="round"/>
      <g>
        <path d="M238.977,290.311 L239.468,335.589" fill="#FFFFFE"/>
        <path d="M238.977,290.311 L239.468,335.589" fill-opacity="0" stroke="#414241" stroke-width="1.701" stroke-linecap="round" stroke-linejoin="round"/>
      </g>
      <g>
        <path d="M212.515,166.752 C212.627,165.685 208.327,163.946 207.586,163.845 C202.946,163.208 201.337,168.67 201.412,172.274 C201.47,175.128 202.294,178.006 204.202,180.182 C204.856,180.93 210.494,185.367 210.793,182.512 C210.793,182.512 212.509,166.815 212.515,166.752 z" fill="#F3B9A0"/>
        <path d="M212.515,166.752 C212.627,165.685 208.327,163.946 207.586,163.845 C202.946,163.208 201.337,168.67 201.412,172.274 C201.47,175.128 202.294,178.006 204.202,180.182 C204.856,180.93 210.494,185.367 210.793,182.512 C210.793,182.512 212.509,166.815 212.515,166.752 z" fill-opacity="0" stroke="#414241" stroke-width="1.701" stroke-linecap="round" stroke-linejoin="round"/>
      </g>
      <g>
        <path d="M274.787,174.001 C274.969,172.948 279.576,172.437 280.317,172.54 C284.956,173.182 285.026,178.876 283.982,182.326 C283.152,185.057 281.582,187.603 279.155,189.185 C278.324,189.727 271.695,192.473 272.18,189.641 C272.18,189.641 274.775,174.067 274.787,174.001 z" fill="#F3B9A0"/>
        <path d="M274.787,174.001 C274.969,172.948 279.576,172.437 280.317,172.54 C284.956,173.182 285.026,178.876 283.982,182.326 C283.152,185.057 281.582,187.603 279.155,189.185 C278.324,189.727 271.695,192.473 272.18,189.641 C272.18,189.641 274.775,174.067 274.787,174.001 z" fill-opacity="0" stroke="#414241" stroke-width="1.701" stroke-linecap="round" stroke-linejoin="round"/>
      </g>
      <path d="M211.526,157.877 C211.526,157.877 195.556,217.165 235.824,221.953 C235.824,221.953 277.315,232.59 278.11,166.253 C278.11,166.253 283.095,135.441 255.699,131.221 C255.699,131.221 214.245,124.955 211.526,157.877" fill="#F3B9A0"/>
      <path d="M233.147,172.05 C233.147,172.05 230.646,180.619 228.819,184.816 C226.997,189.014 227.278,190.235 233.726,191.231" fill-opacity="0" stroke="#414241" stroke-width="1.701" stroke-linecap="round" stroke-linejoin="round"/>
      <path d="M226.066,170.519 C225.922,172.702 224.766,174.399 223.482,174.316 C222.198,174.232 221.273,172.397 221.421,170.212 C221.562,168.029 222.72,166.329 224.003,166.414 C225.286,166.499 226.209,168.336 226.066,170.519" fill="#414241"/>
      <path d="M255.995,172.065 C255.849,174.248 254.692,175.948 253.409,175.865 C252.127,175.781 251.201,173.944 251.349,171.76 C251.49,169.578 252.647,167.878 253.93,167.964 C255.214,168.049 256.137,169.884 255.995,172.065" fill="#414241"/>
      <path d="M231.158,159.015 C231.158,159.015 225.121,148.71 218.82,159.642 M249.932,159.799 C249.932,159.799 258.218,149.833 264.25,159.644 M231.635,202.957 C231.635,202.957 246.086,215.145 253.326,199.76" fill-opacity="0" stroke="#414241" stroke-width="1.701" stroke-linecap="round" stroke-linejoin="round"/>
      <g>
        <path d="M248.606,299.386 C248.628,301.288 247.639,302.841 246.396,302.855 C245.156,302.868 244.134,301.336 244.113,299.434 C244.093,297.53 245.081,295.977 246.322,295.964 C247.564,295.949 248.586,297.482 248.606,299.386 z" fill="#A0D8EB"/>
        <path d="M248.606,299.386 C248.628,301.288 247.639,302.841 246.396,302.855 C245.156,302.868 244.134,301.336 244.113,299.434 C244.093,297.53 245.081,295.977 246.322,295.964 C247.564,295.949 248.586,297.482 248.606,299.386 z" fill-opacity="0" stroke="#414241" stroke-width="1.701" stroke-linecap="round" stroke-linejoin="round"/>
      </g>
      <g>
        <path d="M275.286,260.323 L289.416,315.424 L280.623,338.171 L300.699,338.253 C300.699,338.253 310.714,322.205 308.449,306.829 L297.142,258.732 C291.474,230.185 274.697,229.694 268.149,227.347" fill="#A0D8EB"/>
        <path d="M275.286,260.323 L289.416,315.424 L280.623,338.171 L300.699,338.253 C300.699,338.253 310.714,322.205 308.449,306.829 L297.142,258.732 C291.474,230.185 274.697,229.694 268.149,227.347" fill-opacity="0" stroke="#414241" stroke-width="1.701" stroke-linecap="round" stroke-linejoin="round"/>
      </g>
      <g clip-path="url(#Clip_3)">
        <path d="M263.265,179.958 C269.033,179.896 273.762,184.522 273.824,190.291 C273.887,196.062 269.259,200.788 263.491,200.851 C257.722,200.913 252.994,196.287 252.932,190.518 C252.869,184.748 257.495,180.02 263.265,179.958 z" fill="url(#Gradient_7)"/>
      </g>
      <g clip-path="url(#Clip_4)">
        <path d="M215.467,177.978 C221.236,177.915 225.964,182.541 226.026,188.311 C226.089,194.08 221.463,198.808 215.693,198.87 C213.577,198.91 211.594,198.253 209.844,197.099 C208.506,191.783 208.432,186.277 208.455,180.836 C210.285,178.903 212.889,178.136 215.467,177.978 z" fill="url(#Gradient_8)"/>
      </g>
      <path d="M211.526,157.877 C211.526,157.877 195.556,217.165 235.824,221.953 C235.824,221.953 277.315,232.59 278.11,166.253 C278.11,166.253 283.095,135.441 255.699,131.221 C255.699,131.221 214.245,124.955 211.526,157.877 z" fill-opacity="0" stroke="#414241" stroke-width="1.701" stroke-linecap="round" stroke-linejoin="round"/>
      <g>
        <path d="M266.926,128.707 C266.926,128.707 266.91,121.163 250.512,120.523 C234.113,119.88 215.679,118.687 211.235,115.41 C211.235,115.41 207.338,122.353 215.466,126.196 C215.466,126.196 200.802,126.528 210.771,133.721 C210.771,133.721 203.335,133.047 208.2,139.689 C208.2,139.689 199.7,142.858 203.982,148.703 C208.269,154.548 209.499,164.609 208.97,172.56 C208.97,172.56 216.222,147.288 221.535,143.395 C221.535,143.395 258.403,148.841 264.94,138.534 C264.94,138.534 265.984,145.528 273.704,150.49 C273.704,150.49 278.024,168.601 277.089,181.417 C277.089,181.417 280.75,165.952 287.124,161.278 C290.843,158.554 290.144,152.244 289.278,148.364 C288.636,145.478 287.69,142.457 286.257,139.857 C284.911,137.408 282.797,135.489 281.315,133.126 C279.987,131.011 279.085,128.831 276.692,127.69 C273.424,126.134 269.992,127.057 266.926,128.707 z" fill="#5F4E33"/>
        <path d="M266.926,128.707 C266.926,128.707 266.91,121.163 250.512,120.523 C234.113,119.88 215.679,118.687 211.235,115.41 C211.235,115.41 207.338,122.353 215.466,126.196 C215.466,126.196 200.802,126.528 210.771,133.721 C210.771,133.721 203.335,133.047 208.2,139.689 C208.2,139.689 199.7,142.858 203.982,148.703 C208.269,154.548 209.499,164.609 208.97,172.56 C208.97,172.56 216.222,147.288 221.535,143.395 C221.535,143.395 258.403,148.841 264.94,138.534 C264.94,138.534 265.984,145.528 273.704,150.49 C273.704,150.49 278.024,168.601 277.089,181.417 C277.089,181.417 280.75,165.952 287.124,161.278 C290.843,158.554 290.144,152.244 289.278,148.364 C288.636,145.478 287.69,142.457 286.257,139.857 C284.911,137.408 282.797,135.489 281.315,133.126 C279.987,131.011 279.085,128.831 276.692,127.69 C273.424,126.134 269.992,127.057 266.926,128.707 z" fill-opacity="0" stroke="#414241" stroke-width="1.701" stroke-linecap="round" stroke-linejoin="round"/>
      </g>
      <path d="M235.359,124.178 C235.359,124.178 220.799,126.462 213.202,126.24 C213.202,126.24 219.011,129.518 224.788,130.063 C224.788,130.063 215.416,134.113 210.251,134.17 C210.251,134.17 221.825,137.085 227.592,136.413 C227.592,136.413 220.039,140.444 215.186,141.104 C215.186,141.104 236.758,141.176 245.513,136.22 L232.463,137.272 L235.158,133.9 L225.731,133.092 L233.583,128.449 L228.104,127.598 L235.359,124.178" fill="#836A47"/>
      <path d="M267.544,130.881 C267.544,130.881 276.298,136.845 276.906,144.211 L270.267,139.017 L270.067,145.075 L262.069,135.946 L266.841,138.789 L267.062,135.101 L270.769,136.905 L267.544,130.881" fill="#836A47"/>
      <g>
        <path d="M29.447,129.734 C29.447,129.734 32.473,126.575 36.026,130.127 C39.58,133.682 38.839,142.63 31.552,142.63 L29.447,129.734 z" fill="#F3B9A0"/>
        <path d="M29.447,129.734 C29.447,129.734 32.473,126.575 36.026,130.127 C39.58,133.682 38.839,142.63 31.552,142.63 L29.447,129.734 z" fill-opacity="0" stroke="#414241" stroke-width="1.701" stroke-linecap="round" stroke-linejoin="round"/>
      </g>
      <g>
        <path d="M21.419,131.443 C21.419,131.443 24.315,126.706 29.052,128.154 C29.052,128.154 33.921,130.523 33.921,136.971 C33.921,136.971 34.842,146.577 27.735,143.156" fill="#F3B9A0"/>
        <path d="M21.419,131.443 C21.419,131.443 24.315,126.706 29.052,128.154 C29.052,128.154 33.921,130.523 33.921,136.971 C33.921,136.971 34.842,146.577 27.735,143.156" fill-opacity="0" stroke="#414241" stroke-width="1.701" stroke-linecap="round" stroke-linejoin="round"/>
      </g>
      <g>
        <path d="M16.945,135.918 C16.945,135.918 16.155,129.996 21.814,129.996 C21.814,129.996 25.499,128.943 28.525,136.182 C28.525,136.182 31.026,143.815 27.078,144.998 C27.078,144.998 23.737,145.419 22.735,140.655" fill="#F3B9A0"/>
        <path d="M16.945,135.918 C16.945,135.918 16.155,129.996 21.814,129.996 C21.814,129.996 25.499,128.943 28.525,136.182 C28.525,136.182 31.026,143.815 27.078,144.998 C27.078,144.998 23.737,145.419 22.735,140.655" fill-opacity="0" stroke="#414241" stroke-width="1.701" stroke-linecap="round" stroke-linejoin="round"/>
      </g>
      <g>
        <path d="M17.603,138.945 L18.392,140.919 C19.182,144.078 21.945,144.734 21.945,144.734 C26.025,144.734 23.524,138.812 23.524,138.812 C20.629,131.97 15.564,134.471 15.564,134.471 C11.814,135.918 13.391,143.551 13.391,143.551 L14.541,147.723 C14.541,147.723 16.56,144.14 18.609,141.598" fill="#F3B9A0"/>
        <path d="M17.603,138.945 L18.392,140.919 C19.182,144.078 21.945,144.734 21.945,144.734 C26.025,144.734 23.524,138.812 23.524,138.812 C20.629,131.97 15.564,134.471 15.564,134.471 C11.814,135.918 13.391,143.551 13.391,143.551 L14.541,147.723 C14.541,147.723 16.56,144.14 18.609,141.598" fill-opacity="0" stroke="#414241" stroke-width="1.701" stroke-linecap="round" stroke-linejoin="round"/>
      </g>
      <g>
        <path d="M305.64,120.783 C305.64,120.783 302.614,117.624 299.062,121.176 C295.507,124.73 296.248,133.679 303.534,133.679 L305.64,120.783 z" fill="#F3B9A0"/>
        <path d="M305.64,120.783 C305.64,120.783 302.614,117.624 299.062,121.176 C295.507,124.73 296.248,133.679 303.534,133.679 L305.64,120.783 z" fill-opacity="0" stroke="#414241" stroke-width="1.701" stroke-linecap="round" stroke-linejoin="round"/>
      </g>
      <g>
        <path d="M313.668,122.492 C313.668,122.492 310.773,117.755 306.035,119.203 C306.035,119.203 301.166,121.572 301.166,128.02 C301.166,128.02 300.245,137.626 307.352,134.205" fill="#F3B9A0"/>
        <path d="M313.668,122.492 C313.668,122.492 310.773,117.755 306.035,119.203 C306.035,119.203 301.166,121.572 301.166,128.02 C301.166,128.02 300.245,137.626 307.352,134.205" fill-opacity="0" stroke="#414241" stroke-width="1.701" stroke-linecap="round" stroke-linejoin="round"/>
      </g>
      <g>
        <path d="M318.142,126.967 C318.142,126.967 318.933,121.045 313.273,121.045 C313.273,121.045 309.588,119.992 306.562,127.23 C306.562,127.23 304.062,134.863 308.009,136.047 C308.009,136.047 311.351,136.468 312.352,131.704" fill="#F3B9A0"/>
        <path d="M318.142,126.967 C318.142,126.967 318.933,121.045 313.273,121.045 C313.273,121.045 309.588,119.992 306.562,127.23 C306.562,127.23 304.062,134.863 308.009,136.047 C308.009,136.047 311.351,136.468 312.352,131.704" fill-opacity="0" stroke="#414241" stroke-width="1.701" stroke-linecap="round" stroke-linejoin="round"/>
      </g>
      <g>
        <path d="M317.484,129.994 L316.694,131.968 C315.905,135.127 313.142,135.783 313.142,135.783 C309.062,135.783 311.562,129.861 311.562,129.861 C314.458,123.019 319.523,125.519 319.523,125.519 C323.273,126.967 321.696,134.6 321.696,134.6 L320.546,138.772 C320.546,138.772 318.526,135.189 316.477,132.647" fill="#F3B9A0"/>
        <path d="M317.484,129.994 L316.694,131.968 C315.905,135.127 313.142,135.783 313.142,135.783 C309.062,135.783 311.562,129.861 311.562,129.861 C314.458,123.019 319.523,125.519 319.523,125.519 C323.273,126.967 321.696,134.6 321.696,134.6 L320.546,138.772 C320.546,138.772 318.526,135.189 316.477,132.647" fill-opacity="0" stroke="#414241" stroke-width="1.701" stroke-linecap="round" stroke-linejoin="round"/>
      </g>
      <g>
        <path d="M82.079,336.319 C85.753,324.244 84.441,303.244 84.441,303.244 C73.153,288.019 67.378,264.394 67.378,264.394 C63.441,238.144 105.248,226.6 105.248,226.6 C105.248,226.6 146.498,227.119 151.116,241.819 C151.994,244.615 152.585,247.493 153.04,250.387 C154.384,258.947 154.167,267.558 152.092,275.98 C151.4,278.787 150.503,281.526 149.67,284.293 C148.66,287.646 147.983,291.12 147.267,294.547 C145.509,302.962 144.676,311.601 144.639,320.19 C144.617,325.591 145.005,330.986 145.866,336.319" fill="#96D1CD"/>
        <path d="M82.079,336.319 C85.753,324.244 84.441,303.244 84.441,303.244 C73.153,288.019 67.378,264.394 67.378,264.394 C63.441,238.144 105.248,226.6 105.248,226.6 C105.248,226.6 146.498,227.119 151.116,241.819 C151.994,244.615 152.585,247.493 153.04,250.387 C154.384,258.947 154.167,267.558 152.092,275.98 C151.4,278.787 150.503,281.526 149.67,284.293 C148.66,287.646 147.983,291.12 147.267,294.547 C145.509,302.962 144.676,311.601 144.639,320.19 C144.617,325.591 145.005,330.986 145.866,336.319" fill-opacity="0" stroke="#414241" stroke-width="1.701" stroke-linecap="round" stroke-linejoin="round"/>
      </g>
      <g>
        <path d="M100.509,220.136 C100.509,220.136 94.21,223.023 94.21,234.049 L93.421,253.736 L103.659,244.023 L114.684,246.386 L121.812,241.083 L132.534,242.974 L122.999,223.257 C122.999,223.257 118.946,212.576 100.509,220.136 z" fill="#FFFFFE"/>
        <path d="M100.509,220.136 C100.509,220.136 94.21,223.023 94.21,234.049 L93.421,253.736 L103.659,244.023 L114.684,246.386 L121.812,241.083 L132.534,242.974 L122.999,223.257 C122.999,223.257 118.946,212.576 100.509,220.136 z" fill-opacity="0" stroke="#414241" stroke-width="1.701" stroke-linecap="round" stroke-linejoin="round"/>
      </g>
      <g>
        <path d="M101.559,218.823 C101.559,218.823 104.582,225.282 101.17,228.695 L114.684,246.386 L120.721,226.698 C120.721,226.698 116.769,222.917 118.622,216.724 L101.559,218.823 z" fill="#F3B9A0"/>
        <path d="M101.559,218.823 C101.559,218.823 104.582,225.282 101.17,228.695 L114.684,246.386 L120.721,226.698 C120.721,226.698 116.769,222.917 118.622,216.724 L101.559,218.823 z" fill-opacity="0" stroke="#414241" stroke-width="1.701" stroke-linecap="round" stroke-linejoin="round"/>
      </g>
      <g>
        <path d="M76.844,133.621 C76.844,133.621 92.2,116.952 120.083,127.321 C120.083,127.321 139.064,132.807 145.104,165.213 C145.104,165.213 145.935,184.761 148.991,196.164 C152.047,207.572 142.84,214.712 152.219,220.127 C152.219,220.127 145.905,221.244 141.113,213.193 C141.113,213.193 141.036,217.838 143.816,222.049 C143.816,222.049 135.255,220.31 133.427,216.575 C133.427,216.575 132.848,221.187 135.78,222.881 C135.78,222.881 128.69,223.708 124.952,218.308 L98.258,222.206 C98.258,222.206 98.356,229.936 89.004,230.789 C89.004,230.789 91.404,226.183 90.496,222.793 C90.496,222.793 89.374,229.7 81.053,231.929 C81.053,231.929 82.896,226.48 82.071,223.398 C82.071,223.397 78.326,232.388 70.433,232.519 C70.433,232.519 72.677,227.86 71.687,224.162 C71.687,224.162 69.122,218.779 66.672,215.804 C64.223,212.826 59.203,203.84 54.554,189.896 C50.794,178.615 48.015,140.684 76.844,133.621 z" fill="#9E6653"/>
        <path d="M76.844,133.621 C76.844,133.621 92.2,116.952 120.083,127.321 C120.083,127.321 139.064,132.807 145.104,165.213 C145.104,165.213 145.935,184.761 148.991,196.164 C152.047,207.572 142.84,214.712 152.219,220.127 C152.219,220.127 145.905,221.244 141.113,213.193 C141.113,213.193 141.036,217.838 143.816,222.049 C143.816,222.049 135.255,220.31 133.427,216.575 C133.427,216.575 132.848,221.187 135.78,222.881 C135.78,222.881 128.69,223.708 124.952,218.308 L98.258,222.206 C98.258,222.206 98.356,229.936 89.004,230.789 C89.004,230.789 91.404,226.183 90.496,222.793 C90.496,222.793 89.374,229.7 81.053,231.929 C81.053,231.929 82.896,226.48 82.071,223.398 C82.071,223.397 78.326,232.388 70.433,232.519 C70.433,232.519 72.677,227.86 71.687,224.162 C71.687,224.162 69.122,218.779 66.672,215.804 C64.223,212.826 59.203,203.84 54.554,189.896 C50.794,178.615 48.015,140.684 76.844,133.621 z" fill-opacity="0" stroke="#414241" stroke-width="1.701" stroke-linecap="round" stroke-linejoin="round"/>
      </g>
      <path d="M135.212,161.584 C135.212,161.584 153.694,215.767 113.167,222.335 C113.167,222.335 68.571,232.889 65.554,168.614 C65.554,168.614 66.528,137.044 100.996,133.756 C100.996,133.756 124.669,128.402 135.212,161.584" fill="#F3B9A0"/>
      <path d="M116.908,186.972 C116.908,186.972 128.516,193.239 118.487,197.835" fill-opacity="0" stroke="#414241" stroke-width="1.701" stroke-linecap="round" stroke-linejoin="round"/>
      <g>
        <path d="M123.998,203.575 C123.998,203.575 113.481,208.704 104.987,205.364 C104.987,205.364 116.008,225.538 123.998,203.575 z" fill="#E5787A"/>
        <path d="M123.998,203.575 C123.998,203.575 113.481,208.704 104.987,205.364 C104.987,205.364 116.008,225.538 123.998,203.575 z" fill-opacity="0" stroke="#414241" stroke-width="1.701" stroke-linecap="round" stroke-linejoin="round"/>
      </g>
      <path d="M123.577,178.051 C124.012,180.514 125.47,182.313 126.84,182.069 C128.204,181.831 128.96,179.64 128.527,177.18 C128.094,174.718 126.633,172.916 125.266,173.159 C123.9,173.404 123.144,175.592 123.577,178.051" fill="#414241"/>
      <path d="M96.185,182.208 C96.686,185.045 98.366,187.117 99.941,186.839 C101.517,186.562 102.387,184.036 101.888,181.201 C101.39,178.366 99.706,176.295 98.132,176.571 C96.557,176.85 95.685,179.376 96.185,182.208" fill="#414241"/>
      <path d="M101.109,165.858 C101.109,165.858 90.984,162.591 88.523,172.274 M119.227,163.881 C119.227,163.881 128.635,158.915 132.73,168.029" fill-opacity="0" stroke="#414241" stroke-width="1.701" stroke-linecap="round" stroke-linejoin="round"/>
      <g>
        <path d="M136.165,231.02 C157.569,232.741 158.465,272.925 158.465,272.925 C160.83,323.23 142.949,323.23 142.949,323.23 C124.866,325.342 129.329,277.393 129.329,277.393 L147.441,274.369 C147.441,274.369 149.953,297.527 149.353,306.919" fill="#96D1CD"/>
        <path d="M136.165,231.02 C157.569,232.741 158.465,272.925 158.465,272.925 C160.83,323.23 142.949,323.23 142.949,323.23 C124.866,325.342 129.329,277.393 129.329,277.393 L147.441,274.369 C147.441,274.369 149.953,297.527 149.353,306.919" fill-opacity="0" stroke="#414241" stroke-width="1.701" stroke-linecap="round" stroke-linejoin="round"/>
      </g>
      <g>
        <path d="M128.325,252.564 L136.151,255.799 L128.079,266.129 C128.079,266.129 120.374,259.955 116.951,253.884 L128.325,252.564 z" fill="#52BBB9"/>
        <path d="M128.325,252.564 L136.151,255.799 L128.079,266.129 C128.079,266.129 120.374,259.955 116.951,253.884 L128.325,252.564 z" fill-opacity="0" stroke="#414241" stroke-width="1.701" stroke-linecap="round" stroke-linejoin="round"/>
      </g>
      <g>
        <path d="M105.814,256.535 L99.567,262.252 L110.687,269.194 C110.687,269.194 115.808,260.756 116.951,253.884 L105.814,256.535 z" fill="#52BBB9"/>
        <path d="M105.814,256.535 L99.567,262.252 L110.687,269.194 C110.687,269.194 115.808,260.756 116.951,253.884 L105.814,256.535 z" fill-opacity="0" stroke="#414241" stroke-width="1.701" stroke-linecap="round" stroke-linejoin="round"/>
      </g>
      <g>
        <path d="M117.545,253.148 C117.545,253.148 124.656,259.81 129.94,259.861 L131.579,246.712 C131.579,246.712 121.044,244.94 116.432,248.722 L117.545,253.148 z" fill="#52BBB9"/>
        <path d="M117.545,253.148 C117.545,253.148 124.656,259.81 129.94,259.861 L131.579,246.712 C131.579,246.712 121.044,244.94 116.432,248.722 L117.545,253.148 z" fill-opacity="0" stroke="#414241" stroke-width="1.701" stroke-linecap="round" stroke-linejoin="round"/>
      </g>
      <g>
        <path d="M115.628,253.487 C115.628,253.487 111.221,262.182 106.265,264.038 L100.23,252.235 C100.23,252.235 109.531,246.974 115.153,248.951 L115.628,253.487 z" fill="#52BBB9"/>
        <path d="M115.628,253.487 C115.628,253.487 111.221,262.182 106.265,264.038 L100.23,252.235 C100.23,252.235 109.531,246.974 115.153,248.951 L115.628,253.487 z" fill-opacity="0" stroke="#414241" stroke-width="1.701" stroke-linecap="round" stroke-linejoin="round"/>
      </g>
      <g>
        <path d="M112.667,250.884 C113.019,252.899 114.939,254.236 116.951,253.884 C118.963,253.526 120.306,251.605 119.96,249.592 C119.6,247.579 117.684,246.234 115.665,246.59 C113.657,246.948 112.304,248.861 112.667,250.884 z" fill="#52BBB9"/>
        <path d="M112.667,250.884 C113.019,252.899 114.939,254.236 116.951,253.884 C118.963,253.526 120.306,251.605 119.96,249.592 C119.6,247.579 117.684,246.234 115.665,246.59 C113.657,246.948 112.304,248.861 112.667,250.884 z" fill-opacity="0" stroke="#414241" stroke-width="1.701" stroke-linecap="round" stroke-linejoin="round"/>
      </g>
      <g>
        <path d="M128.997,276.823 C128.997,276.823 128.716,268.47 128.463,260.98 C128.463,260.979 126.731,252.202 125.21,249.201 C125.21,249.201 123.229,244.547 128.086,246.836 C128.086,246.836 132.278,249.414 133.372,256.781 C133.372,256.781 134.787,244.738 135.549,241.184 C135.751,240.242 136.396,237.363 136.776,237.039 C137.345,236.552 138.325,236.411 138.994,236.753 C139.823,237.173 139.948,238.256 140.071,239.073 C140.136,239.511 138.574,255.176 138.574,255.176 L144.48,239.639 C144.48,239.639 145.75,235.146 147.979,235.677 C147.979,235.677 150.568,235.723 149.36,240.636 L143.338,256.835 C144.929,254.498 150.821,245.18 152.813,243.42 C153.284,243.006 155.136,241.691 155.846,242.559 C157.769,244.898 155.112,248.29 153.54,250.325 C151.729,252.667 148.331,258.367 147.849,258.778 C147.85,258.777 154.507,253.894 154.517,253.885 C155.415,253.081 158.522,251.202 158.858,253.49 C158.963,254.214 158.528,254.952 158.135,255.525 C157.666,256.213 150.474,262.568 149.375,263.456 C149.3,263.516 144.725,272.21 139.711,275.659 L128.997,276.823 z" fill="#F3B9A0"/>
        <path d="M128.997,276.823 C128.997,276.823 128.716,268.47 128.463,260.98 C128.463,260.979 126.731,252.202 125.21,249.201 C125.21,249.201 123.229,244.547 128.086,246.836 C128.086,246.836 132.278,249.414 133.372,256.781 C133.372,256.781 134.787,244.738 135.549,241.184 C135.751,240.242 136.396,237.363 136.776,237.039 C137.345,236.552 138.325,236.411 138.994,236.753 C139.823,237.173 139.948,238.256 140.071,239.073 C140.136,239.511 138.574,255.176 138.574,255.176 L144.48,239.639 C144.48,239.639 145.75,235.146 147.979,235.677 C147.979,235.677 150.568,235.723 149.36,240.636 L143.338,256.835 C144.929,254.498 150.821,245.18 152.813,243.42 C153.284,243.006 155.136,241.691 155.846,242.559 C157.769,244.898 155.112,248.29 153.54,250.325 C151.729,252.667 148.331,258.367 147.849,258.778 C147.85,258.777 154.507,253.894 154.517,253.885 C155.415,253.081 158.522,251.202 158.858,253.49 C158.963,254.214 158.528,254.952 158.135,255.525 C157.666,256.213 150.474,262.568 149.375,263.456 C149.3,263.516 144.725,272.21 139.711,275.659 L128.997,276.823 z" fill-opacity="0" stroke="#414241" stroke-width="1.701" stroke-linecap="round" stroke-linejoin="round"/>
      </g>
      <g>
        <path d="M118.151,271.615 C118.151,271.615 116.793,265.962 117.698,258.049 C117.698,258.049 117.246,248.555 116.116,245.163 C116.116,245.163 114.759,239.962 119.507,243.127 C119.507,243.127 123.51,246.489 123.51,254.402 C123.51,254.402 128.921,236.428 129.307,235.48 C129.496,235.014 129.717,234.469 130.169,234.186 C130.842,233.763 131.893,233.768 132.544,234.23 C133.349,234.803 133.312,235.96 133.313,236.838 C133.314,237.309 129.229,253.528 129.229,253.528 L137.86,238.12 C137.86,238.12 139.894,233.599 142.156,234.503 C142.156,234.503 144.869,234.955 142.833,239.93 L133.977,256.015 C136.014,253.808 143.659,244.934 146.028,243.394 C146.586,243.031 148.738,241.94 149.35,242.96 C151.005,245.72 147.683,248.871 145.713,250.765 C143.446,252.943 139.542,257.693 138.446,258.946 C138.447,258.945 146.173,254.666 146.186,254.658 C147.254,253.953 150.813,252.464 150.809,254.921 C150.808,255.697 150.233,256.405 149.732,256.946 C149.132,257.596 148.559,258.246 147.849,258.778 C146.383,259.877 140.698,264.207 139.403,264.967 C139.317,265.019 138.04,275.159 128.319,277.421 L118.151,271.615 z" fill="#F3B9A0"/>
        <path d="M118.151,271.615 C118.151,271.615 116.793,265.962 117.698,258.049 C117.698,258.049 117.246,248.555 116.116,245.163 C116.116,245.163 114.759,239.962 119.507,243.127 C119.507,243.127 123.51,246.489 123.51,254.402 C123.51,254.402 128.921,236.428 129.307,235.48 C129.496,235.014 129.717,234.469 130.169,234.186 C130.842,233.763 131.893,233.768 132.544,234.23 C133.349,234.803 133.312,235.96 133.313,236.838 C133.314,237.309 129.229,253.528 129.229,253.528 L137.86,238.12 C137.86,238.12 139.894,233.599 142.156,234.503 C142.156,234.503 144.869,234.955 142.833,239.93 L133.977,256.015 C136.014,253.808 143.659,244.934 146.028,243.394 C146.586,243.031 148.738,241.94 149.35,242.96 C151.005,245.72 147.683,248.871 145.713,250.765 C143.446,252.943 139.542,257.693 138.446,258.946 C138.447,258.945 146.173,254.666 146.186,254.658 C147.254,253.953 150.813,252.464 150.809,254.921 C150.808,255.697 150.233,256.405 149.732,256.946 C149.132,257.596 148.559,258.246 147.849,258.778 C146.383,259.877 140.698,264.207 139.403,264.967 C139.317,265.019 138.04,275.159 128.319,277.421 L118.151,271.615 z" fill-opacity="0" stroke="#414241" stroke-width="1.701" stroke-linecap="round" stroke-linejoin="round"/>
      </g>
      <g>
        <path d="M70.502,249.152 C59.326,268.565 80.766,307.182 80.766,307.182 C92.182,343.105 108.59,321.619 108.59,321.619 C115.809,314.4 134.053,279.094 134.053,279.094 C130.509,275.55 114.891,268.594 114.891,268.594 L97.04,306.656" fill="#96D1CD"/>
        <path d="M70.502,249.152 C59.326,268.565 80.766,307.182 80.766,307.182 C92.182,343.105 108.59,321.619 108.59,321.619 C115.809,314.4 134.053,279.094 134.053,279.094 C130.509,275.55 114.891,268.594 114.891,268.594 L97.04,306.656" fill-opacity="0" stroke="#414241" stroke-width="1.701" stroke-linecap="round" stroke-linejoin="round"/>
      </g>
      <path d="M99.876,300.608 L92.344,272.907" fill-opacity="0" stroke="#414241" stroke-width="1.701" stroke-linecap="round" stroke-linejoin="round"/>
      <g clip-path="url(#Clip_5)">
        <path d="M90.909,189.896 C96.678,189.896 101.356,194.573 101.356,200.343 C101.356,206.113 96.678,210.79 90.909,210.79 C85.139,210.79 80.462,206.113 80.462,200.343 C80.462,194.573 85.139,189.896 90.909,189.896 z" fill="url(#Gradient_9)"/>
      </g>
      <g clip-path="url(#Clip_6)">
        <path d="M135.62,183.211 C136.872,183.209 138.122,183.425 139.277,183.913 C139.58,190.638 139.345,197.765 136.663,204.052 L135.62,204.105 C129.851,204.105 125.173,199.428 125.173,193.657 C125.173,187.888 129.851,183.211 135.62,183.211 z" fill="url(#Gradient_10)"/>
      </g>
      <path d="M135.212,161.584 C135.212,161.584 153.694,215.767 113.167,222.335 C113.167,222.335 68.571,232.889 65.554,168.614 C65.554,168.614 66.528,137.044 100.996,133.756 C100.996,133.756 124.669,128.402 135.212,161.584 z" fill-opacity="0" stroke="#414241" stroke-width="1.701" stroke-linecap="round" stroke-linejoin="round"/>
      <path d="M137.155,152.806 C144.366,167.392 138.423,182.198 138.423,182.198 C136.631,163.19 119.994,154.102 119.994,154.102 L126.455,160.96 C117.698,160.334 105.336,152.414 105.336,152.414 L113.482,158.158 C98.086,158.651 85.222,143.929 85.222,143.929 C85.222,143.929 88.097,158.357 78.675,168.81 L80,160.192 C80,160.192 72.857,168.054 74.371,179.872 C74.371,179.872 71.158,172.803 71.398,168.776 C71.398,168.776 75.2,197.256 92.142,211.887 C92.142,211.887 76.811,211.152 68.18,198.051 L63.914,171.343 L68.236,151.014 L75.398,138.604 L94.769,131.243 L118.266,132.544 L137.155,152.806" fill="#9E6653"/>
      <path d="M137.155,152.806 C144.366,167.392 139.317,182.198 139.317,182.198 C137.525,163.19 119.994,154.102 119.994,154.102 L126.455,160.96 C117.698,160.334 105.336,152.414 105.336,152.414 L113.482,158.158 C98.086,158.651 85.222,143.929 85.222,143.929 C85.222,143.929 88.097,158.357 78.675,168.81 L80,160.192 C80,160.192 72.857,168.054 74.371,179.872 C74.371,179.872 71.158,172.803 71.398,168.776 C71.398,168.776 75.2,197.256 92.142,211.887 C92.142,211.887 76.811,211.152 68.18,198.051" fill-opacity="0" stroke="#414241" stroke-width="1.701" stroke-linecap="round" stroke-linejoin="round"/>
      <path d="M111.844,128.884 C111.844,128.884 127.635,131.57 133.331,144.513 L123.248,140.922 L125.957,148.687 L114.559,141.364 L115.568,148.643 L96.261,139.976 L110.001,141.955 L109.544,136.734 L118.217,139.753 L115.256,134.572 L122.439,136.736 C122.439,136.736 114.292,129.798 111.844,128.884" fill="#C67E65"/>
      <path d="M68.344,144.941 C68.344,144.941 60.548,154.578 64.866,166.003 L70.767,157.5 L73.647,162.388 L80.207,149.311 L74.323,154.346 L73.752,151.04 L67.733,156.74 C67.733,156.74 66.117,148.368 68.344,144.941" fill="#C67E65"/>
    </g>
  </g>
</svg>
